<?xml version="1.0" encoding="utf-8"?>
<!-- Generator: Adobe Illustrator 26.0.2, SVG Export Plug-In . SVG Version: 6.00 Build 0)  -->
<svg version="1.1" id="Layer_1" xmlns="http://www.w3.org/2000/svg" xmlns:xlink="http://www.w3.org/1999/xlink" x="0px" y="0px"
	 viewBox="0 0 223.17 226.63" style="enable-background:new 0 0 223.17 226.63;" xml:space="preserve">
<style type="text/css">
	.st0{fill:#2C5697;}
	.st1{fill:#4B4B4B;}
	.st2{fill:#FFFFFF;}
</style>
<g>
	<path class="st0" d="M93.87,179.76c0.02-0.87,0.04-1.75,0.04-2.64c0-0.27,0.01-0.5,0.02-0.7c0.01-0.1,0.03-0.18,0.07-0.22
		c0.01-0.02,0.07-0.07,0.24-0.13c0.12-0.04,0.36-0.09,0.8-0.09c0.26,0,0.51-0.03,0.72-0.09c0.41-0.12,0.66-0.47,0.66-0.94
		c0-0.23-0.1-0.45-0.31-0.66l-0.17-0.17h-2.26c-0.24,0-0.48,0.01-0.73,0.04c-0.66,0.07-1.26,0.03-1.72-0.03
		c-0.36-0.05-0.79-0.07-1.26-0.07h-0.25c-0.15,0-0.32,0.01-0.49,0.04c-0.43,0.07-0.71,0.39-0.71,0.84c0,0.63,0.4,0.87,0.57,0.94
		c0.21,0.09,0.45,0.14,0.72,0.16c0.2,0.02,0.41,0.04,0.62,0.08c0.11,0.02,0.21,0.07,0.24,0.09c0,0,0.06,0.09,0.1,0.4
		c0.04,0.28,0.06,0.54,0.06,0.77v0.44c0,0.38,0,0.77-0.01,1.15c-0.01,0.39-0.02,0.79-0.02,1.19l-0.02,2.14
		c0,0.27-0.02,0.55-0.05,0.85c-0.03,0.22-0.08,0.29-0.1,0.3c-0.08,0.07-0.19,0.13-0.33,0.16c-0.22,0.05-0.44,0.1-0.64,0.13
		c-0.24,0.05-0.45,0.1-0.63,0.16c-0.38,0.14-0.62,0.44-0.62,0.83c0,0.42,0.22,0.76,0.59,0.9c0.21,0.08,0.43,0.12,0.65,0.12h0.32
		c0.25,0,0.47-0.01,0.66-0.03c0.18-0.02,0.35-0.04,0.52-0.07c0.13-0.02,0.28-0.04,0.43-0.05c0.45-0.04,1.16-0.02,1.79,0.05
		c0.71,0.07,1.43,0.1,2.1,0.04c0.52-0.05,0.85-0.43,0.85-0.95c0-0.4-0.26-0.72-0.68-0.83c-0.19-0.05-0.4-0.1-0.65-0.14
		c-0.22-0.04-0.45-0.08-0.69-0.13c-0.13-0.02-0.23-0.07-0.29-0.12c-0.04-0.04-0.09-0.1-0.12-0.24c-0.04-0.2-0.07-0.4-0.08-0.58v-0.3
		C93.84,181.48,93.85,180.62,93.87,179.76"/>
	<path class="st0" d="M106.37,182.75c-0.2,0.36-0.47,0.66-0.8,0.89c-0.3,0.21-0.67,0.31-1.12,0.31c-0.54,0-0.96-0.12-1.3-0.38
		c-0.36-0.28-0.65-0.63-0.85-1.06c-0.22-0.46-0.38-0.97-0.47-1.51c-0.09-0.56-0.14-1.1-0.14-1.61c0-0.27,0.01-0.52,0.03-0.76
		l0.06-0.58c0.1-0.12,0.23-0.25,0.38-0.39c0.2-0.19,0.43-0.37,0.68-0.54c0.24-0.16,0.5-0.3,0.77-0.42c0.69-0.29,1.43-0.16,1.91,0.13
		c0.34,0.2,0.6,0.45,0.81,0.76c0.22,0.33,0.38,0.72,0.49,1.15c0.11,0.45,0.17,0.91,0.17,1.37c0,0.43-0.05,0.9-0.15,1.38
		C106.74,181.95,106.58,182.37,106.37,182.75 M108.64,183.89c0.48-0.58,0.86-1.24,1.13-1.97c0.27-0.73,0.41-1.51,0.41-2.3
		c0-0.73-0.11-1.42-0.33-2.05c-0.23-0.64-0.56-1.21-0.98-1.68c-0.43-0.47-0.96-0.85-1.57-1.13c-1-0.44-2.27-0.54-3.4-0.22
		c-0.42,0.12-0.81,0.28-1.16,0.46c-0.1,0.06-0.2,0.11-0.3,0.17c0.24-0.67,0.54-1.32,0.89-1.94c0.62-1.09,1.43-2.06,2.4-2.9
		c0.22-0.19,0.45-0.37,0.67-0.54c0.22-0.17,0.46-0.32,0.67-0.44c0.06-0.03,0.16-0.07,0.3-0.14c0.17-0.07,0.33-0.15,0.48-0.23
		c0.19-0.1,0.35-0.2,0.49-0.32c0.26-0.21,0.39-0.44,0.39-0.7c0-0.27-0.11-0.52-0.31-0.7c-0.12-0.11-0.23-0.19-0.34-0.26l-0.16-0.09
		l-0.18,0.02c-0.23,0.02-0.48,0.09-0.76,0.2c-0.23,0.09-0.43,0.18-0.61,0.26c-1.11,0.52-2.16,1.17-3.11,1.94
		c-0.96,0.78-1.82,1.67-2.54,2.65c-0.73,0.99-1.3,2.07-1.71,3.22c-0.42,1.16-0.63,2.4-0.63,3.68c0,0.66,0.07,1.32,0.21,1.95
		c0.14,0.64,0.36,1.25,0.66,1.81c0.3,0.57,0.68,1.09,1.16,1.54c0.47,0.45,1.05,0.83,1.72,1.13c0.81,0.34,1.63,0.51,2.44,0.51
		c0.84,0,1.62-0.18,2.32-0.52C107.55,184.94,108.15,184.47,108.64,183.89"/>
	<path class="st0" d="M116.59,188.52c-0.44,0.4-0.97,0.75-1.57,1.05c-0.6,0.29-1.24,0.54-1.9,0.73c-0.21,0.03-0.39,0.14-0.5,0.31
		c-0.1,0.13-0.16,0.29-0.18,0.46c-0.02,0.21,0.03,0.41,0.15,0.58c0.09,0.12,0.29,0.32,0.67,0.32h0l0.01,0
		c0.87-0.02,1.78-0.22,2.7-0.6c0.91-0.38,1.75-0.89,2.51-1.53c0.76-0.65,1.4-1.4,1.89-2.25c0.51-0.88,0.78-1.83,0.78-2.8
		c0-0.66-0.12-1.29-0.34-1.86c-0.23-0.59-0.57-1.09-1.01-1.52c-0.44-0.42-0.98-0.74-1.61-0.94c-0.19-0.06-0.39-0.11-0.59-0.15
		c0.26-0.27,0.52-0.57,0.77-0.88c0.32-0.41,0.61-0.83,0.83-1.27c0.26-0.49,0.39-0.95,0.39-1.37c0-0.57-0.11-1.07-0.32-1.47
		c-0.21-0.4-0.49-0.73-0.83-0.99c-0.34-0.25-0.72-0.44-1.14-0.55c-0.8-0.21-1.67-0.24-2.54,0.12c-0.41,0.17-0.8,0.38-1.14,0.62
		c-0.35,0.25-0.65,0.52-0.88,0.81c-0.29,0.36-0.41,0.72-0.38,1.11c0.03,0.22,0.14,0.42,0.32,0.58c0.19,0.17,0.37,0.2,0.5,0.2
		c0.19,0,0.36-0.07,0.52-0.24c0.33-0.38,0.64-0.68,0.92-0.91c0.39-0.32,1.2-0.38,1.73,0.13c0.25,0.24,0.38,0.66,0.38,1.23
		c0,0.32-0.09,0.64-0.28,0.98c-0.22,0.38-0.49,0.75-0.82,1.09c-0.34,0.35-0.7,0.67-1.09,0.95c-0.39,0.29-0.75,0.52-1.04,0.68
		l-0.45,0.22c-0.55,0.27-0.63,0.66-0.63,0.87c0,0.58,0.37,0.97,0.92,0.97c0.21,0,0.42-0.08,0.73-0.3c0.15-0.1,0.27-0.18,0.39-0.23
		c0.2-0.1,0.38-0.15,0.57-0.15l0.11,0c0.32,0.03,0.62,0.07,0.91,0.13c0.31,0.06,0.58,0.18,0.81,0.34c0.24,0.18,0.44,0.39,0.6,0.65
		c0.17,0.27,0.31,0.57,0.4,0.88c0.09,0.32,0.14,0.65,0.14,0.96c0,0.62-0.12,1.18-0.37,1.67
		C117.37,187.67,117.02,188.12,116.59,188.52"/>
	<path class="st0" d="M132.57,180.59c-0.41-0.17-0.85-0.03-1.13,0.36l-0.66,0.95c-0.16,0.23-0.33,0.47-0.5,0.71
		c-0.18,0.24-0.34,0.46-0.47,0.64c-0.01,0.01-0.11,0.09-0.53,0.18c-0.41,0.09-0.87,0.14-1.35,0.16c-0.43,0.02-0.83,0.02-1.23,0
		c0.14-0.15,0.29-0.31,0.45-0.48c0.32-0.34,0.65-0.72,0.99-1.14c0.35-0.42,0.68-0.85,0.99-1.29c0.31-0.44,0.59-0.87,0.82-1.28
		c0.25-0.44,0.42-0.84,0.5-1.18c0.37-1.33,0.25-2.44-0.36-3.29c-0.62-0.86-1.6-1.29-2.9-1.29c-0.24,0-0.48,0.01-0.72,0.03
		c-0.27,0.02-0.55,0.07-0.83,0.17c-0.29,0.09-0.59,0.25-0.9,0.45c-0.3,0.2-0.62,0.49-0.95,0.85c-0.06,0.06-0.14,0.16-0.24,0.3
		l-0.24,0.33c-0.11,0.15-0.2,0.3-0.27,0.44c-0.09,0.19-0.14,0.36-0.14,0.51c0,0.29,0.13,0.55,0.37,0.72
		c0.25,0.18,0.58,0.21,0.86,0.07c0.2-0.1,0.36-0.27,0.51-0.54c0.07-0.12,0.16-0.25,0.29-0.4c0.11-0.12,0.26-0.23,0.46-0.32
		c0.13-0.06,0.39-0.14,0.87-0.14c0.87,0,1.11,0.37,1.19,0.49c0.22,0.33,0.2,0.83-0.05,1.49c-0.17,0.4-0.39,0.85-0.67,1.33
		c-0.29,0.51-0.62,1.04-0.99,1.57c-0.37,0.55-0.77,1.09-1.2,1.64c-0.43,0.54-0.85,1.05-1.25,1.5c-0.24,0.23-0.29,0.48-0.29,0.64
		c0,0.14,0,0.58,0.33,0.84c0.15,0.12,0.34,0.19,0.57,0.21l0.17,0.02c0.3,0,0.51-0.2,0.64-0.36c0.36,0,0.75-0.01,1.18-0.01
		c0.5-0.01,0.95-0.01,1.33-0.01c0.95,0.03,1.75,0.1,2.37,0.19c0.66,0.1,1.22,0.17,1.64,0.2l0.1,0.01c0.34,0,0.7-0.23,0.75-0.76
		c0.01-0.16,0.04-0.4,0.09-0.71c0.05-0.3,0.13-0.68,0.27-1.14c0.13-0.44,0.38-0.95,0.74-1.52l0.16-0.26l-0.12-0.28
		C133.16,181.01,132.97,180.74,132.57,180.59"/>
	<polygon class="st0" points="65.8,71.78 157.43,71.78 111.61,49.96 	"/>
	<rect x="63.62" y="76.13" class="st0" width="95.99" height="4.37"/>
	<rect x="63.62" y="143.77" class="st0" width="26.18" height="13.09"/>
	<rect x="133.43" y="143.77" class="st0" width="26.18" height="13.09"/>
	<rect x="98.52" y="143.77" class="st0" width="8.73" height="13.09"/>
	<rect x="115.98" y="143.77" class="st0" width="8.72" height="13.09"/>
	<polygon class="st0" points="64.71,84.86 63.62,139.41 72.34,139.41 71.25,84.86 	"/>
	<polygon class="st0" points="88.71,84.86 82.16,84.86 81.07,139.41 89.8,139.41 	"/>
	<polygon class="st0" points="106.16,84.86 99.62,84.86 98.53,139.41 107.25,139.41 	"/>
	<polygon class="st0" points="123.61,84.86 117.06,84.86 115.98,139.41 124.7,139.41 	"/>
	<polygon class="st0" points="133.43,139.41 142.16,139.41 141.07,84.86 134.53,84.86 	"/>
	<polygon class="st0" points="158.52,84.86 151.97,84.86 150.88,139.41 159.61,139.41 	"/>
	<polygon class="st0" points="159.61,61.96 111.61,39.05 63.62,61.96 63.62,67.41 111.61,44.5 159.61,67.41 	"/>
	<path class="st0" d="M12.46,96.59c1.68,0,3.04-1.36,3.04-3.04c0-1.68-1.36-3.04-3.04-3.04c-1.68,0-3.04,1.36-3.04,3.04
		C9.42,95.23,10.78,96.59,12.46,96.59"/>
	<path class="st0" d="M207.88,93.55c0,1.68,1.36,3.04,3.04,3.04c1.68,0,3.04-1.36,3.04-3.04c0-1.68-1.36-3.04-3.04-3.04
		C209.24,90.52,207.88,91.88,207.88,93.55"/>
	<path class="st0" d="M10.03,70.26c0.13,0.14,0.28,0.26,0.46,0.37l0.46,0.29c0.66,0.43,1.15,0.81,1.47,1.11
		c0.35,0.33,0.65,0.56,0.9,0.69c0.22,0.12,0.41,0.14,0.57,0.07c0.14-0.06,0.26-0.18,0.37-0.38c0.09-0.17,0-0.38-0.16-0.65
		c-0.13-0.22-0.29-0.46-0.46-0.71c-0.17-0.25-0.34-0.49-0.5-0.71c-0.2-0.27-0.24-0.39-0.25-0.42c-0.1-0.37-0.13-0.71-0.07-1.01
		c0.06-0.31,0.17-0.62,0.32-0.91l0.67-1.27c0.17-0.32,0.35-0.6,0.54-0.85c0.16-0.21,0.25-0.24,0.24-0.25
		c0.07,0.02,0.19,0.07,0.36,0.15c0.19,0.09,0.31,0.15,0.38,0.19l9.91,5.22c0.37,0.19,0.67,0.38,0.9,0.55
		c0.21,0.16,0.36,0.32,0.44,0.5c0.08,0.17,0.11,0.38,0.09,0.62c-0.03,0.26-0.12,0.6-0.29,1.03c0,0.02-0.02,0.08-0.1,0.22
		c-0.09,0.17-0.14,0.34-0.16,0.52c-0.02,0.14,0.01,0.41,0.35,0.59c0.1,0.06,0.2,0.08,0.28,0.08c0.17,0,0.3-0.09,0.37-0.2
		c0.08-0.12,0.15-0.23,0.21-0.35c0.26-0.49,0.5-1,0.73-1.51c0.22-0.5,0.46-0.99,0.71-1.48c0.28-0.54,0.58-1.07,0.9-1.59
		c0.32-0.53,0.63-1.07,0.92-1.61c0.1-0.19,0.17-0.34,0.21-0.46c0.06-0.16,0.03-0.4-0.39-0.62c-0.13-0.07-0.47-0.18-0.8,0.29
		l-0.52,0.76c-0.18,0.26-0.39,0.48-0.64,0.67c-0.21,0.15-0.48,0.18-0.82,0.07c-0.23-0.07-0.45-0.16-0.66-0.26
		c-0.22-0.11-0.44-0.22-0.65-0.33c-1.18-0.65-2.4-1.29-3.62-1.89c-1.22-0.6-2.43-1.23-3.6-1.88l-2.48-1.36
		c-0.3-0.16-0.51-0.29-0.64-0.39c-0.15-0.12-0.17-0.19-0.17-0.25c0.05-0.08,0.1-0.18,0.16-0.28c0.06-0.11,0.13-0.25,0.21-0.42
		c0.08-0.17,0.17-0.35,0.28-0.55c0.14-0.27,0.3-0.55,0.48-0.84c0.18-0.29,0.36-0.56,0.54-0.8c0.18-0.23,0.36-0.41,0.55-0.54
		c0.16-0.11,0.31-0.15,0.44-0.14c0.21,0.02,0.42,0.09,0.61,0.2c0.22,0.13,0.43,0.26,0.61,0.39c0.21,0.14,0.39,0.23,0.56,0.28
		c0.12,0.03,0.43,0.07,0.63-0.31c0.11-0.21,0.16-0.56-0.27-0.97c-0.26-0.25-0.59-0.52-0.99-0.8c-0.39-0.26-0.79-0.53-1.2-0.79
		c-0.39-0.25-0.68-0.48-0.88-0.7l0,0c-0.16-0.18-0.37-0.29-0.64-0.32c-0.18-0.03-0.52-0.01-0.75,0.43c-0.05,0.1-0.09,0.27,0.04,0.49
		c0.06,0.09,0.12,0.21,0.18,0.34c0.06,0.12,0.11,0.25,0.14,0.4c0.03,0.12,0.02,0.24-0.02,0.36c-0.08,0.21-0.17,0.42-0.27,0.63
		c-0.1,0.21-0.21,0.42-0.32,0.62c-0.34,0.66-0.67,1.29-0.98,1.91c-0.3,0.61-0.63,1.25-0.97,1.9c-0.43,0.82-0.88,1.65-1.35,2.5
		c-0.47,0.85-0.94,1.67-1.41,2.46c-0.1,0.16-0.2,0.26-0.3,0.32c-0.12,0.06-0.23,0.1-0.33,0.12c-0.12,0.02-0.23,0.04-0.31,0.05
		c-0.17,0.02-0.31,0.11-0.38,0.25c-0.12,0.23-0.16,0.45-0.1,0.66C9.79,69.94,9.89,70.11,10.03,70.26"/>
	<path class="st0" d="M27.06,49.43c0.03,0.01,0.07,0.02,0.11,0.04l1.35,0.47c0.54,0.19,1.11,0.38,1.72,0.59
		c0.51,0.18,1.01,0.34,1.48,0.5c-0.57,0.72-1.01,1.28-1.32,1.68c-0.32,0.42-0.57,0.73-0.73,0.94l-0.16,0.2l-0.78-1.41
		c-0.25-0.45-0.48-0.86-0.69-1.22c-0.21-0.36-0.4-0.71-0.59-1.05C27.33,49.94,27.2,49.7,27.06,49.43 M26.25,51.2
		c0.73,1.31,1.48,2.62,2.22,3.94c0.44,0.78,0.88,1.55,1.31,2.32c0.43,0.76,0.88,1.53,1.32,2.29c0.06,0.11,0.15,0.27,0.27,0.47
		c0.12,0.2,0.24,0.41,0.36,0.63l0.34,0.63c0.13,0.25,0.16,0.34,0.17,0.38c0.06,0.19,0.07,0.35,0.02,0.48
		c-0.07,0.18-0.14,0.34-0.22,0.49c-0.09,0.18-0.16,0.35-0.19,0.51c-0.03,0.16-0.01,0.4,0.28,0.63c0.11,0.09,0.24,0.14,0.39,0.15
		c0.01,0,0.02,0,0.02,0c0.17,0,0.31-0.07,0.42-0.21c0.22-0.28,0.41-0.55,0.57-0.81c0.14-0.24,0.32-0.5,0.53-0.76
		c0.3-0.38,0.63-0.75,0.98-1.11c0.37-0.37,0.7-0.76,1.01-1.15c0.12-0.14,0.17-0.32,0.16-0.5c-0.01-0.19-0.1-0.36-0.25-0.48
		c-0.27-0.21-0.59-0.2-0.87,0.03c-0.2,0.16-0.41,0.35-0.63,0.58c-0.19,0.2-0.4,0.37-0.6,0.49c-0.1,0.06-0.22,0.09-0.44-0.08
		c-0.01-0.01-0.09-0.08-0.37-0.47c-0.21-0.3-0.47-0.67-0.78-1.13c-0.31-0.47-0.64-0.99-0.98-1.55c-0.33-0.54-0.65-1.11-0.97-1.68
		c0.08-0.15,0.19-0.31,0.32-0.5c0.17-0.24,0.35-0.48,0.54-0.72c0.2-0.25,0.4-0.5,0.59-0.72c0.19-0.23,0.35-0.42,0.47-0.57l0.27-0.34
		c0.16-0.2,0.32-0.39,0.49-0.56c0.13-0.14,0.25-0.21,0.36-0.22c0,0,0.04,0,0.18,0.04c0.13,0.03,0.29,0.07,0.44,0.1l1.69,0.48
		c0.54,0.16,1.04,0.3,1.48,0.44l1.15,0.35c0.32,0.1,0.55,0.17,0.7,0.23l0.14,0.06c0.03,0.01,0.06,0.03,0.07,0.04
		c0.15,0.12,0.13,0.2,0.1,0.27c-0.08,0.19-0.19,0.39-0.33,0.6c-0.16,0.23-0.3,0.44-0.41,0.63c-0.24,0.42-0.01,0.67,0.1,0.76
		c0.17,0.13,0.36,0.18,0.57,0.14c0.2-0.04,0.36-0.14,0.49-0.3c0.34-0.43,0.66-0.87,0.95-1.32c0.29-0.44,0.61-0.88,0.93-1.29
		c0.22-0.28,0.46-0.55,0.72-0.81c0.27-0.26,0.53-0.55,0.76-0.85l0.16-0.2c0.11-0.14,0.2-0.31,0.27-0.49
		c0.13-0.35-0.04-0.56-0.16-0.65c-0.24-0.19-0.52-0.2-0.77-0.03c-0.16,0.12-0.34,0.26-0.54,0.43c-0.19,0.16-0.39,0.31-0.6,0.44
		c-0.18,0.11-0.39,0.13-0.64,0.07c-1.77-0.4-3.53-0.83-5.25-1.29c-1.71-0.46-3.45-0.96-5.18-1.5c-0.91-0.27-1.84-0.54-2.78-0.81
		c-0.94-0.27-1.87-0.55-2.78-0.81c-0.1-0.03-0.21-0.05-0.34-0.05c-0.17,0.01-0.34,0.07-0.46,0.21c-0.13,0.16-0.17,0.32-0.13,0.46
		c0.02,0.09,0.07,0.18,0.13,0.27C24.77,48.58,25.52,49.89,26.25,51.2"/>
	<path class="st0" d="M45.48,34.35c0.12,0.46,0.13,0.9,0.01,1.32c-0.11,0.43-0.34,0.84-0.66,1.24c-0.33,0.41-0.73,0.82-1.19,1.21
		c-0.24,0.2-0.37,0.27-0.44,0.3c-0.08,0.04-0.12,0.02-0.13,0.01c-0.07-0.04-0.14-0.11-0.22-0.22c-0.1-0.13-0.23-0.29-0.38-0.46
		c-0.4-0.47-0.84-1-1.33-1.6c-0.49-0.6-0.93-1.13-1.33-1.6l-0.51-0.6c-0.2-0.24-0.3-0.45-0.3-0.65c0-0.1,0.07-0.33,0.54-0.73
		c0.41-0.35,0.84-0.62,1.29-0.79c0.4-0.16,0.81-0.24,1.21-0.24c0.03,0,0.06,0,0.1,0c0.43,0.02,0.86,0.13,1.28,0.33
		c0.42,0.21,0.82,0.54,1.2,0.98v0C45.06,33.37,45.36,33.88,45.48,34.35 M34.95,36.45c0.15-0.05,0.31-0.14,0.48-0.27
		c0.16-0.11,0.32-0.23,0.5-0.36c0.16-0.12,0.32-0.21,0.49-0.27c0.14-0.06,0.29-0.06,0.45-0.03c0.15,0.04,0.31,0.15,0.48,0.34
		c0.85,1,1.68,2,2.51,3c0.82,1,1.66,2,2.51,3l3.09,3.63c0.18,0.21,0.28,0.4,0.3,0.57c0.02,0.18,0,0.36-0.06,0.53
		c-0.07,0.19-0.16,0.35-0.28,0.49c-0.14,0.17-0.27,0.33-0.4,0.47c-0.13,0.16-0.24,0.3-0.31,0.41c-0.13,0.2-0.12,0.41,0.02,0.58
		c0.14,0.16,0.3,0.32,0.49,0.32c0.02,0,0.04,0,0.05,0c0.12-0.02,0.26-0.1,0.46-0.27c0.36-0.31,0.72-0.64,1.06-0.99
		c0.32-0.33,0.66-0.65,1.02-0.96c0.41-0.35,0.84-0.68,1.28-0.99c0.46-0.32,0.91-0.67,1.34-1.03c0.26-0.22,0.43-0.4,0.53-0.56
		c0.07-0.11,0.2-0.39-0.1-0.74c-0.15-0.18-0.36-0.23-0.56-0.14c-0.12,0.06-0.24,0.13-0.35,0.23c-0.04,0.04-0.07,0.05-0.06,0.05
		l-0.05,0.02c-0.28,0.16-0.53,0.3-0.74,0.44c-0.18,0.12-0.36,0.2-0.52,0.24c-0.14,0.04-0.29,0.02-0.45-0.05
		c-0.17-0.07-0.37-0.25-0.61-0.52l-3.09-3.63c-0.3-0.35-0.34-0.49-0.35-0.52c0,0,0.01-0.09,0.23-0.28c0.38-0.32,0.78-0.5,1.19-0.53
		c0.44-0.03,0.89,0.02,1.35,0.15c0.48,0.14,0.97,0.33,1.46,0.57c0.51,0.25,1.04,0.49,1.54,0.69c1.16,0.63,2.38,0.98,3.63,1.04
		c1.26,0.06,2.5-0.26,3.69-0.96c0.09-0.06,0.21-0.13,0.34-0.22c0.13-0.09,0.27-0.19,0.39-0.3c0.32-0.27,0.52-0.49,0.63-0.68
		l0.03-0.1c0.02-0.27-0.02-0.45-0.12-0.58c-0.08-0.09-0.3-0.29-0.68-0.09c-0.14,0.08-0.3,0.14-0.51,0.21
		c-0.55,0.29-1.13,0.42-1.74,0.42c-0.64-0.02-1.3-0.11-1.96-0.29c-0.67-0.18-1.34-0.42-2-0.7c-0.67-0.29-1.3-0.56-1.9-0.82
		c-0.61-0.27-1.17-0.47-1.67-0.61c-0.32-0.09-0.62-0.14-0.87-0.13c0.12-0.29,0.22-0.6,0.32-0.91c0.15-0.48,0.24-0.97,0.27-1.46
		c0.03-0.5-0.01-0.99-0.13-1.47c-0.12-0.49-0.36-0.94-0.71-1.35c-0.61-0.72-1.27-1.21-1.95-1.45c-0.67-0.24-1.34-0.32-1.99-0.25
		c-0.64,0.07-1.25,0.25-1.8,0.55c-0.54,0.29-1.02,0.6-1.42,0.94c-0.45,0.38-0.89,0.78-1.33,1.18c-0.43,0.4-0.87,0.79-1.32,1.17
		l-1.53,1.3c-0.12,0.1-0.26,0.21-0.4,0.31c-0.15,0.11-0.29,0.22-0.43,0.33c-0.14,0.12-0.27,0.26-0.38,0.41
		c-0.08,0.11-0.23,0.4,0.07,0.75C34.51,36.48,34.72,36.53,34.95,36.45"/>
	<path class="st0" d="M49.83,23.6c0.08,0.18,0.16,0.34,0.23,0.49c0.33,0.72,0.55,1.29,0.66,1.72c0.12,0.46,0.25,0.82,0.39,1.07
		c0.12,0.21,0.28,0.33,0.45,0.36c0.16,0.02,0.32-0.02,0.51-0.13c0.16-0.1,0.2-0.31,0.21-0.63c0-0.26,0-0.54-0.02-0.85
		c-0.01-0.3-0.03-0.59-0.05-0.87c-0.02-0.34,0-0.45,0.01-0.49c0.11-0.37,0.27-0.67,0.48-0.89c0.22-0.24,0.48-0.44,0.76-0.6
		l1.24-0.72c0.31-0.18,0.61-0.32,0.91-0.43c0.25-0.09,0.34-0.07,0.34-0.08c0.05,0.06,0.12,0.16,0.22,0.32
		c0.11,0.17,0.18,0.29,0.22,0.36L62,31.9c0.21,0.36,0.37,0.68,0.47,0.94c0.09,0.24,0.13,0.46,0.11,0.66
		c-0.02,0.19-0.1,0.38-0.25,0.57c-0.17,0.21-0.42,0.44-0.8,0.72c-0.01,0.01-0.06,0.05-0.2,0.13c-0.16,0.09-0.3,0.21-0.41,0.35
		c-0.09,0.11-0.21,0.36-0.02,0.69c0.11,0.19,0.26,0.29,0.43,0.29c0.06,0,0.13-0.01,0.19-0.04c0.13-0.06,0.25-0.12,0.37-0.18
		c0.48-0.28,0.95-0.58,1.42-0.89c0.44-0.3,0.91-0.59,1.39-0.87c0.54-0.31,1.08-0.6,1.61-0.86c0.56-0.28,1.11-0.58,1.63-0.88
		c0.19-0.11,0.32-0.2,0.42-0.27c0.14-0.11,0.25-0.32,0-0.74c-0.07-0.13-0.3-0.41-0.82-0.18l-0.84,0.37c-0.29,0.13-0.59,0.2-0.9,0.23
		c-0.24,0.01-0.5-0.1-0.73-0.38c-0.15-0.18-0.29-0.37-0.42-0.57c-0.13-0.2-0.25-0.42-0.37-0.62c-0.65-1.18-1.34-2.37-2.06-3.53
		c-0.7-1.14-1.39-2.32-2.05-3.51l-1.38-2.47c-0.17-0.3-0.28-0.52-0.33-0.67c-0.06-0.18-0.05-0.25-0.01-0.31
		c0.09-0.04,0.19-0.09,0.29-0.15c0.11-0.06,0.25-0.15,0.4-0.25c0.15-0.1,0.33-0.2,0.53-0.32c0.26-0.15,0.55-0.31,0.85-0.46
		c0.3-0.15,0.6-0.28,0.88-0.38c0.27-0.1,0.52-0.15,0.75-0.17c0.19-0.01,0.34,0.03,0.45,0.11c0.17,0.13,0.3,0.3,0.4,0.5
		c0.12,0.23,0.22,0.45,0.31,0.65c0.1,0.23,0.21,0.41,0.33,0.54c0.08,0.09,0.32,0.29,0.7,0.08c0.21-0.12,0.43-0.39,0.29-0.96
		c-0.09-0.36-0.23-0.76-0.42-1.19c-0.19-0.43-0.39-0.87-0.6-1.31c-0.2-0.42-0.33-0.77-0.38-1.06c-0.04-0.23-0.17-0.44-0.37-0.62
		c-0.14-0.12-0.44-0.29-0.86-0.04c-0.1,0.06-0.22,0.18-0.23,0.44c0,0.11-0.01,0.24-0.03,0.38c-0.02,0.13-0.05,0.27-0.09,0.41
		c-0.04,0.11-0.11,0.21-0.21,0.3c-0.18,0.14-0.36,0.27-0.56,0.39c-0.2,0.13-0.4,0.24-0.6,0.36c-0.64,0.37-1.26,0.74-1.84,1.1
		c-0.59,0.36-1.2,0.72-1.84,1.09c-0.8,0.46-1.62,0.93-2.47,1.39c-0.85,0.47-1.69,0.91-2.51,1.33c-0.17,0.08-0.31,0.12-0.42,0.1
		c-0.13-0.01-0.25-0.04-0.34-0.07c-0.11-0.05-0.21-0.09-0.29-0.13c-0.16-0.08-0.32-0.07-0.45,0.01c-0.23,0.13-0.37,0.3-0.44,0.5
		c-0.06,0.18-0.06,0.37-0.03,0.57C49.68,23.22,49.74,23.4,49.83,23.6"/>
	<path class="st0" d="M68.52,13.89c0.14,0.05,0.29,0.06,0.43,0.04c0.13-0.01,0.26-0.04,0.38-0.07c0.12-0.03,0.21-0.06,0.3-0.08
		l0.24-0.08c0.23-0.08,0.41-0.07,0.56,0c0.17,0.09,0.32,0.22,0.43,0.39c0.13,0.19,0.24,0.4,0.32,0.65c0.09,0.26,0.18,0.49,0.24,0.69
		c0.4,1.21,0.8,2.45,1.17,3.7c0.36,1.2,0.76,2.45,1.18,3.71l0.27,0.81c0.05,0.14,0.09,0.27,0.15,0.41c0.05,0.13,0.11,0.27,0.17,0.39
		c0.38,0.85,0.85,1.52,1.4,1.99c0.55,0.46,1.16,0.79,1.84,0.96c0.44,0.11,0.9,0.17,1.38,0.17c0.24,0,0.49-0.02,0.74-0.04
		c0.73-0.09,1.49-0.26,2.25-0.51c0.64-0.21,1.28-0.48,1.92-0.8c0.64-0.32,1.25-0.71,1.79-1.16c0.65-0.54,1.09-1.16,1.31-1.84
		c0.22-0.66,0.32-1.36,0.3-2.09c-0.02-0.72-0.13-1.45-0.33-2.18c-0.19-0.71-0.4-1.4-0.62-2.05c-0.13-0.4-0.27-0.79-0.4-1.19
		c-0.14-0.39-0.27-0.78-0.4-1.18c-0.15-0.44-0.32-0.95-0.52-1.54c-0.2-0.58-0.39-1.15-0.56-1.69c-0.17-0.54-0.3-1.02-0.38-1.42
		c-0.09-0.43-0.06-0.55-0.06-0.55h0c0.01-0.01,0.07-0.07,0.31-0.19c0.21-0.1,0.42-0.22,0.65-0.35c0.23-0.14,0.43-0.29,0.6-0.45
		c0.27-0.27,0.26-0.54,0.2-0.71c-0.05-0.14-0.19-0.38-0.64-0.4h-0.04l-0.04,0.01c-0.4,0.13-0.8,0.28-1.19,0.43
		c-0.39,0.15-0.77,0.29-1.16,0.42c-0.37,0.12-0.76,0.23-1.15,0.33c-0.4,0.1-0.8,0.21-1.19,0.34c-0.14,0.05-0.26,0.11-0.37,0.18
		c-0.09,0.06-0.28,0.24-0.16,0.59c0.12,0.37,0.35,0.49,0.53,0.53c0.19,0.04,0.41,0.04,0.65,0.01c0.21-0.03,0.43-0.06,0.65-0.1
		c0.17-0.03,0.31-0.02,0.44,0.04c0.06,0.03,0.2,0.12,0.35,0.44c0.14,0.29,0.28,0.63,0.41,1.01c0.13,0.39,0.26,0.8,0.38,1.23
		c0.13,0.43,0.25,0.82,0.36,1.16l1.55,4.7c0.14,0.42,0.23,0.85,0.28,1.28c0.11,0.76,0.13,1.43,0.07,2
		c-0.06,0.55-0.22,1.03-0.47,1.44c-0.25,0.41-0.6,0.77-1.06,1.06c-0.47,0.3-1.07,0.58-1.8,0.82c-0.61,0.2-1.19,0.32-1.72,0.36
		c-0.51,0.04-1-0.05-1.44-0.24c-0.45-0.2-0.88-0.54-1.27-1.02c-0.4-0.49-0.78-1.17-1.13-2.04c-0.18-0.44-0.34-0.89-0.5-1.33
		c-0.16-0.45-0.31-0.9-0.46-1.36l-1.34-4.04c-0.07-0.22-0.14-0.45-0.22-0.7c-0.07-0.25-0.14-0.49-0.19-0.72
		c-0.06-0.24-0.1-0.45-0.13-0.65c-0.04-0.22-0.04-0.34-0.03-0.41c0.02-0.2,0.1-0.34,0.26-0.45c0.21-0.15,0.43-0.28,0.65-0.4
		c0.24-0.13,0.46-0.26,0.64-0.39c0.27-0.18,0.36-0.47,0.26-0.77c-0.09-0.27-0.32-0.41-0.63-0.36c-0.2,0.03-0.36,0.07-0.49,0.11
		c-0.52,0.17-1.02,0.36-1.5,0.57c-0.47,0.2-0.96,0.39-1.46,0.56c-0.46,0.15-0.93,0.28-1.4,0.39c-0.48,0.11-0.96,0.25-1.44,0.4
		c-0.21,0.07-0.35,0.18-0.43,0.33c-0.08,0.16-0.09,0.34-0.02,0.54C68.23,13.71,68.35,13.84,68.52,13.89"/>
	<path class="st0" d="M109.31,3.02h0.03c0.4-0.01,0.75-0.14,1.04-0.4c0.31-0.27,0.46-0.62,0.45-1.05v0
		c-0.01-0.38-0.15-0.73-0.43-1.03c-0.28-0.31-0.63-0.45-1.05-0.46c-0.42,0.01-0.78,0.15-1.08,0.44c-0.31,0.29-0.46,0.66-0.46,1.08
		c0.01,0.43,0.16,0.78,0.47,1.04C108.58,2.89,108.92,3.02,109.31,3.02"/>
	<path class="st0" d="M102.29,5.83c0.13,0.02,0.26,0.04,0.38,0.04c0.12,0.01,0.22,0.01,0.31,0.01l0.25,0
		c0.22-0.01,0.41,0.05,0.53,0.17c0.14,0.14,0.23,0.31,0.3,0.51c0.07,0.22,0.11,0.46,0.12,0.71c0.01,0.28,0.02,0.52,0.02,0.73
		c0.02,1.26,0.03,2.57,0.02,3.88c-0.01,1.28,0,2.59,0.02,3.89l0.01,0.86c0,0.15,0.01,0.29,0.02,0.43c0.01,0.14,0.03,0.29,0.05,0.43
		c0.11,0.93,0.36,1.7,0.74,2.31c0.38,0.61,0.88,1.1,1.47,1.47c0.58,0.36,1.25,0.61,1.99,0.75c0.67,0.13,1.37,0.19,2.1,0.19
		c0.07,0,0.13,0,0.2,0c0.67-0.01,1.37-0.07,2.07-0.19c0.71-0.12,1.4-0.31,2.06-0.57c0.78-0.32,1.38-0.78,1.8-1.36
		c0.41-0.57,0.71-1.21,0.91-1.91c0.19-0.69,0.31-1.43,0.33-2.18c0.03-0.75,0.03-1.47,0.02-2.14c-0.01-0.42-0.02-0.83-0.03-1.25
		c-0.02-0.42-0.03-0.83-0.03-1.25c-0.01-0.46-0.02-1-0.04-1.62c-0.02-0.61-0.03-1.2-0.03-1.77c0-0.56,0.02-1.06,0.06-1.47
		c0.04-0.44,0.11-0.55,0.1-0.55c0.01-0.01,0.09-0.05,0.36-0.09c0.23-0.04,0.47-0.08,0.72-0.14c0.26-0.06,0.5-0.15,0.7-0.25
		c0.34-0.18,0.41-0.43,0.4-0.62v0c0-0.15-0.07-0.42-0.5-0.57l-0.04-0.02l-0.05,0c-0.42,0.01-0.84,0.03-1.26,0.06
		c-0.41,0.03-0.82,0.05-1.24,0.05c-0.4,0-0.8,0-1.2-0.03c-0.41-0.03-0.83-0.04-1.23-0.03c-0.15,0-0.29,0.02-0.41,0.06
		c-0.1,0.03-0.34,0.14-0.33,0.52c0.01,0.39,0.2,0.57,0.35,0.66c0.17,0.1,0.38,0.17,0.61,0.2c0.21,0.04,0.43,0.07,0.65,0.1
		c0.17,0.02,0.3,0.08,0.41,0.17c0.05,0.05,0.15,0.18,0.21,0.53c0.05,0.32,0.08,0.68,0.08,1.09c0.01,0.41,0.01,0.84,0,1.29
		c-0.01,0.45-0.01,0.85,0,1.21l0.08,4.95c0.01,0.44-0.03,0.88-0.12,1.3c-0.12,0.76-0.3,1.41-0.53,1.93
		c-0.22,0.5-0.52,0.92-0.88,1.24c-0.36,0.32-0.8,0.55-1.32,0.7c-0.54,0.15-1.2,0.23-1.96,0.24c-0.63,0.02-1.23-0.05-1.75-0.17
		c-0.5-0.12-0.94-0.34-1.31-0.66c-0.37-0.32-0.68-0.78-0.91-1.35c-0.24-0.59-0.4-1.35-0.47-2.28c-0.04-0.47-0.06-0.95-0.08-1.42
		c-0.02-0.48-0.03-0.95-0.04-1.43l-0.07-4.26c0-0.23,0-0.47,0-0.73c0.01-0.26,0.02-0.51,0.03-0.75c0.02-0.24,0.04-0.46,0.07-0.66
		c0.02-0.18,0.06-0.31,0.09-0.4c0.08-0.18,0.2-0.3,0.39-0.35c0.24-0.08,0.49-0.14,0.74-0.19c0.27-0.05,0.52-0.11,0.73-0.18
		c0.31-0.1,0.48-0.33,0.48-0.66c0-0.29-0.19-0.49-0.49-0.54c-0.2-0.03-0.36-0.05-0.5-0.04c-0.55,0.01-1.09,0.04-1.6,0.1
		c-0.51,0.05-1.04,0.08-1.56,0.09c-0.48,0-0.97-0.01-1.45-0.05c-0.49-0.04-0.99-0.06-1.49-0.05c-0.44,0.01-0.7,0.27-0.7,0.7
		c0,0.19,0.08,0.34,0.23,0.45C102,5.74,102.14,5.8,102.29,5.83"/>
	<path class="st0" d="M113.87,2.94c0.05,0.02,0.1,0.03,0.16,0.03h0.01c0.43-0.01,0.8-0.15,1.09-0.43c0.3-0.28,0.45-0.66,0.44-1.11
		c-0.01-0.42-0.15-0.77-0.44-1.04C114.86,0.13,114.52,0,114.11,0h-0.03c-0.43,0.01-0.8,0.15-1.07,0.43
		c-0.28,0.28-0.41,0.64-0.4,1.06c0.01,0.37,0.13,0.69,0.36,0.97C113.2,2.74,113.5,2.9,113.87,2.94"/>
	<path class="st0" d="M122.45,22.22c0.52,0.09,0.96,0.16,1.34,0.19l1.09,0.1c0.35,0.03,0.71,0.07,1.08,0.1
		c0.37,0.04,0.81,0.1,1.3,0.19c0.98,0.18,2,0.43,3.03,0.76c1.04,0.33,2.08,0.59,3.09,0.78c0.02,0,0.05,0.01,0.07,0.01
		c0.3,0,0.49-0.38,0.57-0.53c0.14-0.28,0.31-0.65,0.52-1.11c0.21-0.45,0.47-0.96,0.79-1.5c0.31-0.54,0.71-1.08,1.18-1.6l0.09-0.1
		l-0.03-0.13c-0.04-0.16-0.14-0.37-0.44-0.49c-0.23-0.09-0.46-0.08-0.71,0.04c-0.05,0.04-0.14,0.11-0.46,0.5
		c-0.22,0.27-0.47,0.56-0.77,0.89c-0.29,0.32-0.6,0.63-0.92,0.92c-0.3,0.27-0.57,0.44-0.83,0.54c-0.09,0.04-0.3,0.1-0.78,0.18
		c-0.38,0.06-0.81,0.09-1.28,0.07c-0.46-0.02-0.93-0.1-1.38-0.24c-0.44-0.14-0.81-0.37-1.1-0.68c-0.03-0.04-0.09-0.15-0.1-0.4
		c-0.02-0.23-0.01-0.5,0.01-0.78c0.02-0.3,0.06-0.6,0.11-0.93c0.05-0.32,0.1-0.62,0.15-0.9l0.16-0.86c0.25-1.38,0.51-2.73,0.76-4.06
		c0.26-1.32,0.51-2.68,0.76-4.06c0.02-0.12,0.05-0.26,0.09-0.42c0.04-0.16,0.08-0.31,0.13-0.47c0.05-0.14,0.11-0.28,0.18-0.41
		c0.06-0.11,0.13-0.18,0.21-0.23c0.13-0.07,0.29-0.09,0.5-0.08l0.74,0.06c0.27,0.02,0.5,0.02,0.7,0c0.29-0.03,0.49-0.22,0.54-0.5
		c0.03-0.19-0.03-0.39-0.19-0.6l-0.06-0.07l-0.09-0.02c-0.64-0.12-1.23-0.21-1.74-0.27c-0.5-0.06-1.04-0.14-1.6-0.24
		c-0.52-0.1-1.03-0.22-1.52-0.36c-0.51-0.15-1.04-0.27-1.57-0.37c-0.18-0.03-0.36-0.05-0.56-0.05h0c-0.3,0-0.51,0.19-0.57,0.52
		c-0.06,0.34,0.1,0.6,0.45,0.72c0.23,0.08,0.49,0.17,0.78,0.26c0.26,0.08,0.51,0.2,0.74,0.35c0.18,0.12,0.26,0.29,0.26,0.56
		c0,0.3-0.03,0.64-0.09,0.99l-1.21,6.65c-0.08,0.43-0.16,0.95-0.24,1.56c-0.08,0.61-0.17,1.2-0.28,1.78
		c-0.1,0.56-0.23,1.08-0.37,1.55c-0.16,0.52-0.34,0.73-0.44,0.8c-0.2,0.13-0.4,0.19-0.63,0.19c-0.26-0.01-0.5-0.03-0.72-0.05
		c-0.25-0.03-0.47-0.03-0.65,0c-0.15,0.02-0.43,0.13-0.5,0.55c-0.03,0.15,0,0.29,0.07,0.43C122.16,22.1,122.29,22.19,122.45,22.22"
		/>
	<path class="st0" d="M139.09,25.86l0.3,0.1c0.45,0.15,0.87,0.27,1.24,0.34c0.35,0.07,0.75,0.17,1.17,0.32
		c0.4,0.13,0.8,0.3,1.18,0.47c0.4,0.19,0.81,0.35,1.23,0.49c0.23,0.08,0.45,0.14,0.68,0.2c0.06,0.01,0.11,0.02,0.17,0.02
		c0.26,0,0.46-0.15,0.56-0.43c0.04-0.11,0.09-0.4-0.24-0.63c-0.15-0.1-0.33-0.21-0.54-0.32c-0.2-0.11-0.4-0.22-0.61-0.34
		c-0.17-0.1-0.29-0.21-0.36-0.33c-0.09-0.17-0.11-0.37-0.06-0.62c0.06-0.3,0.13-0.56,0.21-0.78l1.91-5.58
		c0.31-0.92,0.64-1.82,0.97-2.72c0.33-0.9,0.66-1.81,0.97-2.73c0.09-0.26,0.17-0.47,0.25-0.66c0.06-0.14,0.14-0.24,0.25-0.31
		c0.1-0.07,0.24-0.1,0.43-0.08c0.22,0.01,0.52,0.09,0.89,0.21c0.23,0.08,0.44,0.12,0.63,0.13c0.18,0,0.46-0.04,0.6-0.46
		c0.03-0.07,0.04-0.17,0.03-0.28c-0.01-0.12-0.03-0.2-0.06-0.28l-0.04-0.09l-2-0.68c-0.21-0.07-0.44-0.14-0.67-0.19
		c-0.22-0.05-0.43-0.11-0.62-0.18c-0.41-0.14-0.82-0.31-1.23-0.49c-0.43-0.2-0.86-0.37-1.28-0.51l-0.24-0.08
		c-0.13-0.04-0.27-0.08-0.43-0.11c-0.27-0.05-0.48,0.08-0.57,0.34c-0.14,0.4,0.03,0.63,0.14,0.73c0.14,0.12,0.32,0.24,0.55,0.33
		c0.19,0.08,0.39,0.18,0.59,0.29c0.16,0.09,0.28,0.21,0.35,0.35c0.02,0.06,0.05,0.21-0.02,0.56c-0.05,0.29-0.12,0.56-0.2,0.8
		l-0.14,0.42c-0.12,0.36-0.25,0.72-0.38,1.08c-0.13,0.36-0.27,0.74-0.4,1.12l-2.8,8.11c-0.09,0.27-0.21,0.54-0.34,0.82
		c-0.11,0.22-0.23,0.36-0.36,0.41c-0.15,0.07-0.32,0.09-0.52,0.07c-0.23-0.02-0.45-0.05-0.66-0.08c-0.21-0.03-0.4-0.05-0.57-0.05
		c-0.28,0-0.49,0.13-0.57,0.37c-0.12,0.37,0.05,0.58,0.17,0.68C138.75,25.71,138.91,25.8,139.09,25.86"/>
	<path class="st0" d="M150.43,28.34c-0.2-0.1-0.4-0.19-0.6-0.27c-0.22-0.09-0.43-0.14-0.62-0.15c-0.26-0.01-0.48,0.11-0.62,0.35
		c-0.14,0.25-0.08,0.52,0.16,0.7c0.16,0.12,0.3,0.22,0.43,0.29c0.57,0.31,1.14,0.59,1.7,0.84c0.54,0.24,1.1,0.52,1.66,0.82
		c0.27,0.15,0.54,0.31,0.79,0.49c0.27,0.19,0.55,0.37,0.84,0.52l0.26,0.14c0.17,0.09,0.35,0.14,0.55,0.15
		c0.25,0,0.45-0.11,0.58-0.34c0.11-0.21,0.1-0.42-0.04-0.58c-0.09-0.1-0.2-0.19-0.34-0.28c-0.13-0.08-0.25-0.15-0.38-0.21
		c-0.08-0.04-0.11-0.07-0.11-0.07l-0.04-0.09l-0.09-0.04c-0.24-0.1-0.4-0.23-0.47-0.38c-0.08-0.17-0.1-0.34-0.07-0.54
		c0.03-0.22,0.1-0.45,0.2-0.69c0.11-0.25,0.22-0.47,0.32-0.67c0.27-0.5,0.54-1,0.81-1.48c0.27-0.49,0.54-0.98,0.81-1.49l0.5-0.92
		c0.1-0.19,0.2-0.36,0.3-0.53c0.06-0.1,0.11-0.18,0.15-0.24c0.06,0.05,0.12,0.1,0.2,0.15c0.1,0.16,0.21,0.41,0.33,0.75
		c0.13,0.39,0.27,0.85,0.42,1.37c0.15,0.52,0.29,1.07,0.43,1.66c0.14,0.58,0.27,1.15,0.39,1.7l0.55,2.55c0,0.06,0.02,0.16,0.05,0.31
		c0.02,0.13,0.04,0.28,0.07,0.43c0.02,0.15,0.05,0.3,0.07,0.42c0.02,0.1,0.03,0.16,0.03,0.22c0,0.01,0,0.01,0,0.02
		c-0.05-0.01-0.1-0.04-0.14-0.06c-0.07-0.04-0.18-0.1-0.35-0.2c-0.18-0.11-0.39-0.2-0.61-0.29c-0.23-0.08-0.44-0.13-0.65-0.14
		c-0.28-0.02-0.49,0.1-0.61,0.32c-0.17,0.32-0.1,0.52-0.01,0.63c0.08,0.1,0.21,0.2,0.37,0.29c0.51,0.28,1.05,0.54,1.61,0.8
		c0.53,0.25,1.06,0.51,1.58,0.79c0.43,0.23,0.85,0.48,1.24,0.73c0.4,0.26,0.83,0.51,1.27,0.75c0.09,0.05,0.21,0.1,0.36,0.15
		c0.07,0.03,0.14,0.04,0.21,0.04c0.16,0,0.3-0.07,0.4-0.22c0.27-0.43,0.06-0.72-0.05-0.82c-0.15-0.14-0.3-0.28-0.46-0.4
		c-0.27-0.25-0.5-0.53-0.67-0.86c-0.18-0.34-0.33-0.7-0.45-1.09c-0.12-0.39-0.23-0.8-0.31-1.21c-0.09-0.43-0.18-0.83-0.27-1.23
		c-0.04-0.15-0.12-0.44-0.23-0.87l-0.39-1.51c-0.15-0.56-0.3-1.15-0.47-1.81c-0.16-0.64-0.31-1.23-0.44-1.79
		c-0.13-0.55-0.24-1.03-0.33-1.43c-0.06-0.27-0.09-0.43-0.11-0.52c0.08-0.03,0.23-0.08,0.48-0.15c0.38-0.11,0.85-0.23,1.39-0.37
		c0.55-0.14,1.14-0.29,1.79-0.44c0.64-0.15,1.25-0.29,1.82-0.41c0.57-0.12,1.07-0.22,1.51-0.3c0.52-0.09,0.74-0.11,0.82-0.11
		c0.2,0,0.41,0.04,0.64,0.13c0.25,0.09,0.5,0.19,0.73,0.27c0.25,0.1,0.47,0.16,0.67,0.19c0.28,0.04,0.51-0.07,0.64-0.31
		c0.11-0.2,0.1-0.41-0.01-0.59c-0.09-0.14-0.21-0.25-0.35-0.33c-0.34-0.19-0.69-0.36-1.04-0.52c-0.34-0.16-0.68-0.33-1.01-0.51
		c-0.38-0.2-0.74-0.42-1.1-0.63c-0.37-0.22-0.73-0.44-1.11-0.64c-0.19-0.1-0.39-0.2-0.6-0.31c-0.3-0.15-0.59-0.11-0.82,0.09
		l-0.15,0.23c-0.06,0.12-0.17,0.43,0.22,0.71c0.18,0.13,0.39,0.27,0.62,0.4c0.21,0.12,0.4,0.25,0.57,0.37
		c0.06,0.05,0.09,0.07,0.09,0.07c-0.01,0.01-0.08,0.07-0.4,0.2c-0.29,0.12-0.66,0.24-1.1,0.38c-0.44,0.14-0.92,0.28-1.44,0.41
		l-1.49,0.39c-0.47,0.12-0.89,0.23-1.27,0.33c-0.38,0.1-0.64,0.17-0.79,0.21l-0.41,0.12c-0.16,0.05-0.33,0.09-0.52,0.12
		c-0.18,0.03-0.36,0.05-0.54,0.05c-0.05,0.01-0.09,0-0.14-0.01c0.02-0.03,0.03-0.05,0.04-0.06l0.58-1.08
		c0.18-0.33,0.34-0.65,0.5-0.96c0.16-0.31,0.32-0.62,0.5-0.95l0.58-1.08c0.3-0.56,0.52-0.69,0.63-0.72c0.21-0.06,0.4-0.05,0.59,0.03
		c0.22,0.09,0.42,0.19,0.61,0.32c0.35,0.24,0.6,0.19,0.74,0.11c0.08-0.04,0.16-0.1,0.24-0.21c0.04-0.05,0.07-0.08,0.11-0.11
		l0.07-0.08c0.06-0.1,0.12-0.31-0.12-0.57c-0.12-0.13-0.24-0.22-0.38-0.3l-0.18-0.1c-0.31-0.17-0.64-0.32-0.97-0.45
		c-0.31-0.12-0.61-0.27-0.92-0.43l-0.63-0.34c-0.34-0.19-0.67-0.39-0.98-0.6c-0.33-0.23-0.68-0.45-1.03-0.64l-0.22-0.12
		c-0.14-0.07-0.3-0.13-0.46-0.18c-0.26-0.06-0.47,0.02-0.58,0.23c-0.16,0.3-0.11,0.52-0.04,0.66c0.08,0.16,0.21,0.3,0.39,0.42
		c0.16,0.12,0.33,0.22,0.51,0.31c0.15,0.08,0.29,0.16,0.4,0.25c0.2,0.16,0.2,0.29,0.17,0.41c-0.05,0.23-0.14,0.45-0.24,0.65
		l-1.34,2.48c-0.73,1.36-1.47,2.7-2.21,4.02c-0.74,1.33-1.48,2.67-2.22,4.03c-0.06,0.12-0.14,0.24-0.23,0.39
		c-0.09,0.14-0.19,0.26-0.3,0.38c-0.1,0.11-0.22,0.2-0.35,0.28c-0.1,0.06-0.2,0.08-0.31,0.08
		C150.75,28.46,150.63,28.44,150.43,28.34"/>
	<path class="st0" d="M171.36,41.7c-0.43-0.8-0.66-1.66-0.68-2.54c-0.02-0.9,0.11-1.81,0.39-2.72c0.29-0.92,0.67-1.78,1.13-2.56
		c0.42-0.76,0.94-1.51,1.55-2.22c0.59-0.7,1.27-1.27,2.01-1.7c0.73-0.42,1.53-0.66,2.4-0.7c0.06,0,0.12-0.01,0.19-0.01
		c0.8,0,1.67,0.26,2.57,0.77c0.92,0.52,1.6,1.16,2.05,1.9c0.45,0.75,0.71,1.56,0.79,2.43c0.08,0.87-0.01,1.78-0.26,2.7
		c-0.25,0.93-0.62,1.83-1.1,2.68c-0.44,0.75-0.97,1.5-1.6,2.22c-0.62,0.71-1.32,1.3-2.09,1.75c-0.76,0.45-1.59,0.7-2.46,0.77
		c-0.88,0.07-1.79-0.19-2.75-0.74C172.49,43.17,171.78,42.49,171.36,41.7 M177.19,45.97c0.27,0,0.55-0.01,0.82-0.04
		c1.19-0.1,2.34-0.44,3.43-0.99c1.1-0.56,2.06-1.33,2.87-2.29c0.85-1.01,1.45-2.11,1.77-3.26c0.33-1.15,0.42-2.31,0.28-3.45
		c-0.14-1.14-0.5-2.24-1.07-3.29c-0.57-1.05-1.35-1.98-2.3-2.78c-0.99-0.83-2.07-1.43-3.2-1.77c-1.13-0.34-2.28-0.46-3.43-0.34
		c-1.14,0.12-2.26,0.47-3.31,1.04c-1.06,0.57-2.02,1.37-2.86,2.37c-0.84,1-1.45,2.08-1.83,3.19c-0.37,1.12-0.52,2.25-0.45,3.37
		c0.07,1.12,0.39,2.21,0.93,3.25c0.54,1.04,1.31,1.98,2.29,2.8c0.99,0.83,2.1,1.43,3.29,1.78
		C175.34,45.84,176.26,45.97,177.19,45.97"/>
	<path class="st0" d="M185.58,53.55c0.17-0.88,0.49-1.75,0.96-2.58c0.47-0.83,1.03-1.59,1.64-2.26c0.58-0.66,1.25-1.27,1.99-1.84
		c0.73-0.56,1.51-0.97,2.32-1.23c0.52-0.17,1.06-0.25,1.6-0.25c0.29,0,0.59,0.02,0.89,0.07c0.84,0.14,1.69,0.59,2.53,1.34
		c0.78,0.7,1.32,1.47,1.59,2.29c0.28,0.83,0.36,1.68,0.25,2.54c-0.11,0.87-0.39,1.74-0.83,2.58c-0.44,0.85-0.99,1.66-1.65,2.39
		c-0.58,0.64-1.27,1.26-2.03,1.83c-0.75,0.56-1.57,0.99-2.42,1.27c-0.84,0.28-1.7,0.35-2.57,0.22c-0.86-0.13-1.71-0.57-2.53-1.31
		c-0.85-0.76-1.4-1.58-1.65-2.44C185.46,55.31,185.41,54.42,185.58,53.55 M184.35,48.38c-0.6,1.02-0.99,2.09-1.15,3.2
		c-0.17,1.11-0.09,2.24,0.21,3.37c0.3,1.13,0.86,2.22,1.64,3.23c0.79,1.02,1.74,1.84,2.83,2.44c1.09,0.59,2.24,0.97,3.42,1.12
		c0.39,0.05,0.78,0.07,1.17,0.07c0.8,0,1.61-0.1,2.4-0.31c1.18-0.31,2.29-0.86,3.29-1.63c1.05-0.81,1.86-1.76,2.43-2.81
		c0.56-1.05,0.9-2.17,1.01-3.31c0.11-1.14-0.01-2.3-0.35-3.44c-0.34-1.14-0.89-2.22-1.66-3.2c-0.79-1.02-1.72-1.83-2.75-2.41
		c-1.04-0.57-2.14-0.93-3.28-1.06c-1.14-0.13-2.3-0.02-3.46,0.31c-1.15,0.34-2.26,0.91-3.29,1.71
		C185.77,46.45,184.95,47.37,184.35,48.38"/>
	<path class="st0" d="M205.61,62.37l-6.01,3.09c-0.39,0.2-0.85,0.45-1.38,0.76c-0.51,0.3-1.05,0.59-1.58,0.87
		c-0.51,0.26-1,0.48-1.45,0.65c-0.51,0.19-0.78,0.17-0.91,0.14c-0.23-0.08-0.41-0.21-0.53-0.39c-0.15-0.21-0.28-0.41-0.4-0.6
		c-0.13-0.22-0.27-0.39-0.4-0.52c-0.11-0.11-0.36-0.26-0.75-0.06c-0.13,0.07-0.23,0.17-0.3,0.31c-0.07,0.16-0.07,0.32,0.01,0.47
		c0.24,0.46,0.46,0.86,0.66,1.18c0.2,0.32,0.4,0.63,0.58,0.93c0.18,0.29,0.38,0.6,0.58,0.92c0.19,0.31,0.41,0.7,0.64,1.14
		c0.46,0.89,0.88,1.86,1.24,2.86c0.38,1.03,0.8,2.02,1.27,2.92c0.09,0.18,0.28,0.22,0.46,0.22c0.14,0,0.27-0.03,0.34-0.04
		c0.31-0.06,0.71-0.15,1.2-0.26c0.48-0.11,1.05-0.21,1.67-0.29c0.62-0.09,1.29-0.1,1.99-0.04l0.13,0.01l0.08-0.1
		c0.1-0.13,0.2-0.34,0.12-0.65c-0.06-0.24-0.21-0.42-0.47-0.54c-0.06-0.02-0.19-0.04-0.68-0.06c-0.34-0.01-0.73-0.03-1.17-0.07
		c-0.43-0.03-0.86-0.09-1.28-0.17c-0.4-0.07-0.7-0.18-0.93-0.33c-0.09-0.05-0.27-0.18-0.62-0.51c-0.29-0.27-0.57-0.59-0.84-0.97
		c-0.27-0.37-0.49-0.79-0.65-1.24c-0.16-0.43-0.2-0.87-0.13-1.28c0.01-0.05,0.06-0.16,0.25-0.33c0.18-0.16,0.39-0.32,0.63-0.47
		c0.25-0.16,0.51-0.32,0.8-0.48c0.29-0.16,0.56-0.3,0.8-0.43l0.78-0.4c1.25-0.64,2.47-1.27,3.68-1.87c1.21-0.6,2.44-1.23,3.69-1.87
		c0.11-0.06,0.23-0.12,0.39-0.19c0.15-0.07,0.3-0.13,0.45-0.18c0.14-0.05,0.29-0.09,0.43-0.11c0.12-0.02,0.22-0.01,0.31,0.03
		c0.13,0.06,0.26,0.18,0.36,0.34l0.4,0.63c0.15,0.23,0.29,0.41,0.43,0.55c0.2,0.21,0.47,0.25,0.73,0.12
		c0.17-0.09,0.3-0.26,0.36-0.51l0.02-0.09l-0.04-0.09c-0.3-0.58-0.58-1.1-0.85-1.54c-0.26-0.44-0.52-0.92-0.78-1.42v0
		c-0.24-0.47-0.46-0.94-0.64-1.42c-0.19-0.49-0.42-0.99-0.67-1.47c-0.08-0.16-0.18-0.32-0.3-0.48c-0.18-0.24-0.46-0.29-0.76-0.14
		c-0.3,0.15-0.41,0.44-0.3,0.79c0.07,0.23,0.17,0.49,0.27,0.78c0.09,0.26,0.15,0.53,0.17,0.8c0.02,0.21-0.08,0.38-0.29,0.55
		C206.22,62.02,205.94,62.2,205.61,62.37"/>
	<path class="st0" d="M4.35,128.33c0.7,0.16,1.44,0.24,2.19,0.24c0.75-0.01,1.47-0.03,2.14-0.07c0.42-0.03,0.83-0.06,1.25-0.09
		c0.41-0.03,0.83-0.06,1.24-0.09c0.46-0.03,1-0.06,1.62-0.11c0.61-0.05,1.2-0.08,1.77-0.11c0.56-0.03,1.05-0.03,1.47-0.01
		c0.48,0.02,0.55,0.09,0.55,0.08c0.01,0.02,0.05,0.09,0.1,0.35c0.05,0.23,0.1,0.46,0.18,0.72c0.07,0.26,0.17,0.49,0.28,0.69
		c0.18,0.31,0.42,0.38,0.59,0.38c0.02,0,0.03,0,0.04,0c0.15-0.01,0.42-0.09,0.55-0.52l0.01-0.04l0-0.04
		c-0.03-0.42-0.06-0.84-0.11-1.26c-0.05-0.41-0.08-0.82-0.11-1.23c-0.03-0.4-0.04-0.8-0.03-1.2c0.01-0.41,0-0.83-0.03-1.23
		c-0.01-0.14-0.04-0.28-0.08-0.41c-0.04-0.1-0.17-0.34-0.53-0.31c-0.38,0.02-0.56,0.22-0.64,0.38c-0.09,0.18-0.15,0.39-0.18,0.62
		c-0.03,0.21-0.05,0.43-0.06,0.65c-0.02,0.17-0.06,0.31-0.15,0.42c-0.05,0.06-0.17,0.16-0.52,0.23c-0.31,0.06-0.68,0.11-1.08,0.13
		c-0.41,0.02-0.84,0.04-1.29,0.06c-0.45,0.01-0.85,0.03-1.21,0.05l-4.94,0.3c-0.44,0.03-0.88,0.01-1.3-0.06
		c-0.77-0.09-1.43-0.24-1.95-0.44c-0.51-0.2-0.94-0.48-1.28-0.82c-0.33-0.34-0.59-0.77-0.76-1.29c-0.17-0.53-0.29-1.18-0.33-1.94
		c-0.04-0.64-0.01-1.23,0.09-1.75c0.1-0.51,0.3-0.95,0.61-1.33c0.3-0.38,0.74-0.71,1.31-0.97c0.57-0.26,1.33-0.46,2.26-0.57
		c0.47-0.06,0.94-0.11,1.42-0.14c0.48-0.04,0.95-0.07,1.43-0.1l4.25-0.26c0.23-0.01,0.47-0.03,0.73-0.03c0.26-0.01,0.51-0.01,0.75,0
		c0.24,0.01,0.46,0.02,0.66,0.04c0.18,0.02,0.32,0.05,0.41,0.07c0.19,0.07,0.3,0.18,0.37,0.37c0.09,0.24,0.17,0.49,0.22,0.73
		c0.06,0.27,0.14,0.51,0.21,0.72c0.11,0.31,0.34,0.47,0.68,0.45c0.29-0.02,0.48-0.21,0.51-0.51c0.02-0.2,0.03-0.37,0.02-0.51
		c-0.04-0.55-0.09-1.09-0.17-1.6c-0.08-0.51-0.13-1.03-0.16-1.56c-0.03-0.48-0.04-0.97-0.02-1.45c0.02-0.5,0.01-1-0.02-1.49
		c-0.03-0.44-0.29-0.68-0.73-0.67c-0.19,0.01-0.34,0.1-0.44,0.26c-0.08,0.12-0.13,0.25-0.15,0.41c-0.02,0.13-0.03,0.25-0.03,0.38
		c0,0.12,0,0.22,0.01,0.31l0.02,0.25c0.02,0.24-0.03,0.42-0.15,0.54c-0.13,0.14-0.3,0.25-0.49,0.32c-0.21,0.08-0.45,0.13-0.71,0.15
		c-0.27,0.02-0.52,0.04-0.73,0.06c-1.29,0.08-2.59,0.14-3.88,0.19c-1.25,0.05-2.56,0.11-3.89,0.19l-0.85,0.05
		c-0.14,0.01-0.29,0.02-0.43,0.04c-0.14,0.02-0.28,0.04-0.43,0.06c-0.92,0.15-1.68,0.44-2.28,0.84c-0.59,0.41-1.06,0.93-1.4,1.53
		c-0.33,0.6-0.56,1.28-0.66,2.03c-0.11,0.73-0.13,1.51-0.09,2.3c0.04,0.67,0.13,1.36,0.28,2.06c0.15,0.7,0.37,1.39,0.66,2.03
		c0.36,0.76,0.84,1.34,1.44,1.73C2.99,127.89,3.64,128.17,4.35,128.33"/>
	<path class="st0" d="M14.34,151.76l4.6-1.34c0.15-0.04,0.38-0.11,0.69-0.19c0.31-0.08,0.63-0.16,0.97-0.24
		c0.33-0.07,0.64-0.12,0.95-0.15c0.36-0.03,0.52,0,0.57,0.02c0.1,0.04,0.19,0.15,0.27,0.31c0.1,0.22,0.2,0.44,0.29,0.67
		c0.1,0.24,0.2,0.46,0.32,0.64c0.16,0.26,0.42,0.37,0.7,0.28c0.25-0.07,0.36-0.23,0.41-0.35c0.06-0.15,0.06-0.33-0.01-0.55
		c-0.11-0.39-0.24-0.78-0.38-1.17c-0.14-0.38-0.26-0.76-0.37-1.14c-0.14-0.47-0.26-0.95-0.37-1.42c-0.11-0.48-0.23-0.96-0.38-1.45
		c-0.05-0.15-0.12-0.29-0.23-0.41c-0.08-0.09-0.27-0.23-0.59-0.14c-0.36,0.1-0.53,0.39-0.47,0.76c0.04,0.26,0.11,0.55,0.19,0.86
		c0.08,0.28,0.11,0.57,0.11,0.84c0,0.13-0.04,0.32-0.33,0.49c-0.17,0.09-0.34,0.17-0.51,0.23c-0.19,0.07-0.38,0.13-0.59,0.19
		c-1.16,0.34-2.31,0.68-3.46,1.03c-1.15,0.34-2.3,0.68-3.46,1l-2.7,0.79c-0.07,0.03-0.13,0.04-0.17,0.04
		c1.06-1.58,1.98-2.97,2.77-4.17c0.82-1.24,1.55-2.37,2.2-3.37c0.65-1,1.24-1.91,1.78-2.74c0.54-0.82,1.08-1.63,1.63-2.46
		c0.18-0.35,0.34-0.62,0.48-0.81c0.15-0.21,0.28-0.4,0.38-0.57c0.11-0.19,0.18-0.39,0.21-0.57c0.03-0.2,0-0.44-0.08-0.75
		c-0.08-0.26-0.16-0.5-0.24-0.73c-0.08-0.22-0.16-0.45-0.23-0.7c-0.09-0.32-0.18-0.64-0.25-0.95c-0.08-0.32-0.16-0.64-0.26-0.97
		c-0.04-0.14-0.13-0.29-0.28-0.45c-0.25-0.27-0.5-0.25-0.63-0.21c-0.21,0.06-0.34,0.22-0.39,0.45c-0.03,0.16-0.03,0.34-0.01,0.53
		c0.02,0.18,0.05,0.36,0.09,0.54c0.04,0.15,0.06,0.27,0.07,0.36c0.04,0.32,0.03,0.59-0.03,0.79c-0.05,0.19-0.13,0.35-0.24,0.47
		c-0.1,0.12-0.25,0.22-0.42,0.29c-0.2,0.08-0.42,0.16-0.64,0.22c-1.77,0.52-3.54,1.02-5.26,1.49l-5.28,1.45
		c-0.2,0.06-0.41,0.11-0.63,0.16c-0.21,0.04-0.41,0.06-0.59,0.06c-0.17-0.01-0.32-0.05-0.47-0.14c-0.13-0.07-0.25-0.21-0.34-0.4
		c-0.05-0.11-0.1-0.25-0.16-0.42c-0.06-0.18-0.13-0.35-0.2-0.52c-0.08-0.18-0.18-0.33-0.29-0.45c-0.16-0.16-0.36-0.21-0.58-0.15
		c-0.27,0.08-0.42,0.29-0.42,0.56c0,0.19,0.02,0.36,0.06,0.5c0.15,0.5,0.31,1,0.48,1.49c0.17,0.46,0.32,0.95,0.47,1.44
		c0.13,0.43,0.24,0.86,0.33,1.29c0.1,0.44,0.21,0.88,0.34,1.32c0.03,0.1,0.08,0.2,0.15,0.31c0.12,0.16,0.3,0.23,0.49,0.18
		c0.22-0.07,0.38-0.21,0.46-0.42c0.06-0.16,0.09-0.33,0.08-0.49c-0.03-0.45-0.09-0.84-0.16-1.14c-0.06-0.25-0.07-0.47-0.02-0.65
		c0.04-0.15,0.18-0.31,0.41-0.45c0.27-0.17,0.73-0.35,1.39-0.54c1.16-0.34,2.17-0.64,3.05-0.92c0.88-0.27,1.69-0.52,2.44-0.75
		c0.75-0.23,1.48-0.45,2.18-0.67c0.69-0.22,1.44-0.45,2.24-0.68c0.09-0.03,0.19-0.05,0.28-0.07c-0.13,0.23-0.27,0.46-0.43,0.68
		c-0.27,0.36-0.52,0.71-0.76,1.06l-2.74,4.21c-0.74,1.14-1.36,2.09-1.84,2.84l-0.06,0.09c-0.46,0.71-0.82,1.26-1.08,1.66
		c-0.27,0.42-0.47,0.73-0.6,0.92l-0.24,0.37c-0.04,0.06-0.07,0.1-0.06,0.1l0,0c-0.4,0.57-0.79,1.14-1.17,1.71
		c-0.38,0.57-0.76,1.14-1.13,1.71c-0.05,0.06-0.1,0.14-0.17,0.24c-0.06,0.09-0.13,0.19-0.18,0.28c-0.06,0.1-0.11,0.2-0.15,0.32
		c-0.05,0.15-0.04,0.3,0.02,0.42c0.11,0.24,0.32,0.37,0.57,0.37c0.05,0,0.1,0,0.16-0.01c0.23-0.04,0.47-0.1,0.73-0.18
		c1.47-0.43,2.74-0.8,3.82-1.11C12.51,152.29,13.48,152.01,14.34,151.76"/>
	<path class="st0" d="M22.88,160.45c0.87-0.4,1.74-0.82,2.61-1.25c0.24-0.12,0.45-0.21,0.64-0.29c0.14-0.06,0.28-0.07,0.4-0.05
		c0.12,0.02,0.24,0.11,0.36,0.24c0.15,0.17,0.31,0.43,0.48,0.78c0.11,0.21,0.22,0.39,0.35,0.54c0.11,0.12,0.36,0.29,0.75,0.1h0
		c0.07-0.04,0.14-0.09,0.22-0.18c0.08-0.09,0.13-0.17,0.15-0.24l0.03-0.09l-0.94-1.9c-0.1-0.2-0.21-0.4-0.34-0.61
		c-0.12-0.19-0.22-0.38-0.32-0.56c-0.19-0.4-0.37-0.81-0.53-1.22c-0.16-0.43-0.34-0.85-0.55-1.27l-0.11-0.23
		c-0.06-0.12-0.14-0.25-0.23-0.38c-0.16-0.22-0.4-0.28-0.65-0.16c-0.38,0.19-0.42,0.47-0.41,0.62c0.01,0.19,0.06,0.39,0.16,0.62
		c0.08,0.19,0.15,0.4,0.22,0.61c0.05,0.18,0.05,0.35,0,0.5c-0.03,0.06-0.12,0.18-0.41,0.38c-0.24,0.17-0.48,0.31-0.7,0.42
		l-0.39,0.19c-0.34,0.17-0.69,0.34-1.04,0.5c-0.35,0.17-0.71,0.34-1.07,0.52l-7.71,3.79c-0.25,0.12-0.53,0.24-0.82,0.34
		c-0.23,0.08-0.42,0.09-0.55,0.04c-0.15-0.06-0.29-0.17-0.42-0.32c-0.15-0.18-0.29-0.35-0.41-0.52c-0.14-0.18-0.27-0.33-0.39-0.45
		c-0.19-0.19-0.43-0.23-0.64-0.12c-0.35,0.17-0.38,0.45-0.36,0.6c0.02,0.18,0.07,0.36,0.15,0.53l0.14,0.29
		c0.21,0.42,0.42,0.8,0.64,1.12c0.2,0.3,0.41,0.65,0.61,1.05c0.19,0.37,0.35,0.77,0.5,1.17c0.15,0.42,0.33,0.83,0.52,1.22
		c0.11,0.21,0.22,0.42,0.35,0.62c0.12,0.2,0.3,0.3,0.5,0.3c0.1,0,0.2-0.03,0.31-0.08c0.11-0.05,0.35-0.22,0.27-0.62
		c-0.04-0.18-0.09-0.38-0.15-0.61c-0.06-0.21-0.13-0.44-0.19-0.67c-0.05-0.19-0.06-0.35-0.02-0.49c0.06-0.18,0.18-0.34,0.39-0.48
		c0.25-0.17,0.48-0.3,0.69-0.41l5.29-2.62C21.14,161.27,22.01,160.86,22.88,160.45"/>
	<path class="st0" d="M32.33,177.17c0.86-0.18,1.74-0.38,2.59-0.59c0.12-0.02,0.29-0.07,0.53-0.13c0.23-0.06,0.46-0.11,0.71-0.17
		l0.69-0.15c0.2-0.04,0.34-0.07,0.4-0.07h0.01c0.19,0,0.34,0.05,0.47,0.14c0.16,0.11,0.3,0.23,0.42,0.36
		c0.14,0.15,0.29,0.27,0.44,0.35c0.15,0.08,0.39,0.14,0.7-0.08c0.12-0.08,0.2-0.19,0.25-0.33c0.06-0.17,0.03-0.34-0.07-0.49
		c-0.2-0.29-0.43-0.57-0.67-0.84c-0.22-0.25-0.43-0.51-0.63-0.8c-0.28-0.4-0.54-0.82-0.78-1.26c-0.25-0.45-0.53-0.89-0.81-1.3
		c-0.11-0.15-0.25-0.25-0.44-0.29c-0.19-0.04-0.37,0-0.53,0.11c-0.28,0.2-0.36,0.51-0.22,0.84c0.1,0.24,0.23,0.5,0.38,0.77
		c0.14,0.24,0.24,0.49,0.3,0.72c0.03,0.11,0.03,0.24-0.2,0.4c-0.02,0.01-0.14,0.09-0.82,0.3c-0.5,0.15-1.11,0.33-1.84,0.53
		c-0.73,0.2-1.51,0.42-2.36,0.64c-0.85,0.23-1.65,0.44-2.42,0.63l-2.05,0.51c-0.6,0.15-1.01,0.25-1.24,0.29l-0.19,0.03
		c-0.08,0.02-0.17,0.03-0.25,0.03c-0.03,0-0.05,0-0.07,0c0.05-0.11,0.16-0.32,0.38-0.69c0.3-0.49,0.66-1.07,1.1-1.76
		c0.44-0.69,0.92-1.43,1.45-2.22c0.52-0.8,1.03-1.55,1.5-2.26c0.48-0.71,0.91-1.34,1.28-1.89c0.38-0.55,0.64-0.92,0.79-1.12
		l0.08-0.1c0.02-0.03,0.04-0.05,0.06-0.06c0.13-0.09,0.2-0.07,0.29-0.01c0.16,0.12,0.32,0.28,0.48,0.48
		c0.17,0.22,0.33,0.41,0.49,0.57c0.23,0.25,0.51,0.3,0.75,0.12c0.17-0.12,0.27-0.3,0.29-0.51c0.02-0.2-0.03-0.39-0.14-0.55
		c-0.31-0.44-0.64-0.88-0.99-1.29c-0.33-0.4-0.66-0.82-0.97-1.26c-0.2-0.29-0.4-0.6-0.56-0.92c-0.18-0.33-0.38-0.66-0.6-0.97
		l-0.15-0.21c-0.1-0.14-0.23-0.28-0.39-0.4c-0.22-0.16-0.46-0.18-0.66-0.04c-0.25,0.18-0.34,0.44-0.24,0.73
		c0.06,0.19,0.15,0.4,0.26,0.64c0.1,0.21,0.18,0.45,0.25,0.69c0.05,0.2,0.02,0.41-0.11,0.63c-0.87,1.57-1.82,3.1-2.8,4.56
		c-0.99,1.47-1.98,2.95-2.97,4.44l-1.57,2.43c-0.53,0.83-1.06,1.64-1.57,2.43c-0.06,0.09-0.1,0.19-0.14,0.31
		c-0.06,0.17-0.03,0.35,0.07,0.5c0.12,0.18,0.26,0.24,0.41,0.26c0.09,0,0.19-0.02,0.29-0.05c1.48-0.34,2.94-0.69,4.39-1.05
		c1.44-0.36,2.9-0.7,4.38-1.05C30.6,177.54,31.47,177.35,32.33,177.17"/>
	<path class="st0" d="M41.3,191.51c-0.01,0.03-0.03,0.1-0.15,0.27c-0.1,0.15-0.2,0.31-0.3,0.46c-0.1,0.17-0.19,0.33-0.24,0.49
		c-0.12,0.32,0.01,0.5,0.1,0.59c0.17,0.16,0.33,0.18,0.45,0.16c0.13-0.02,0.26-0.07,0.38-0.17c0.1-0.08,0.19-0.17,0.28-0.27
		c0.07-0.08,0.13-0.15,0.18-0.2c0.23-0.23,0.45-0.47,0.66-0.71c0.21-0.23,0.42-0.47,0.65-0.69c0.22-0.23,0.45-0.45,0.68-0.67
		c0.24-0.22,0.47-0.45,0.7-0.69c0.12-0.13,0.23-0.26,0.34-0.38c0.17-0.22,0.15-0.48-0.06-0.69c-0.15-0.15-0.33-0.2-0.51-0.16
		c-0.11,0.03-0.21,0.06-0.32,0.09l-0.08,0.05c-0.3,0.27-0.61,0.44-0.93,0.52c-0.3,0.06-0.59-0.01-0.92-0.24
		c-0.33-0.24-0.66-0.51-0.96-0.79c-0.31-0.3-0.62-0.59-0.92-0.88c-0.07-0.07-0.16-0.15-0.27-0.24c-0.1-0.08-0.19-0.18-0.29-0.28
		c-0.09-0.09-0.16-0.19-0.22-0.29c-0.03-0.04-0.04-0.08-0.05-0.11c0.06-0.08,0.13-0.17,0.23-0.28l0.37-0.38
		c0.37-0.38,0.73-0.76,1.09-1.14c0.36-0.38,0.72-0.76,1.09-1.13c0.18-0.18,0.37-0.37,0.58-0.56c0.19-0.18,0.39-0.31,0.59-0.41
		c0.18-0.09,0.36-0.12,0.55-0.1c0.18,0.02,0.37,0.13,0.59,0.34l0.73,0.71c0.22,0.21,0.45,0.45,0.69,0.69
		c0.24,0.24,0.46,0.49,0.67,0.73c0.2,0.24,0.38,0.47,0.53,0.68c0.14,0.2,0.22,0.37,0.26,0.49c0.05,0.19,0.04,0.39-0.04,0.6
		c-0.09,0.26-0.19,0.51-0.31,0.76c-0.12,0.26-0.21,0.5-0.29,0.71c-0.13,0.37,0,0.6,0.12,0.72l0.02,0.02
		c0.19,0.15,0.46,0.1,0.77-0.14c0.22-0.17,0.45-0.37,0.67-0.6c0.19-0.19,0.35-0.36,0.49-0.49c0.14-0.14,0.26-0.25,0.36-0.35
		c0.19-0.2,0.38-0.44,0.57-0.73c0.07-0.11,0.14-0.34-0.07-0.64c-0.11-0.15-0.23-0.29-0.36-0.42l-0.18-0.18
		c-0.76-0.74-1.52-1.46-2.27-2.17c-0.75-0.7-1.51-1.42-2.27-2.16c-0.38-0.38-0.75-0.75-1.11-1.13c-0.36-0.39-0.73-0.76-1.11-1.13
		c-0.1-0.1-0.21-0.22-0.35-0.36c-0.15-0.16-0.3-0.3-0.45-0.41c-0.16-0.12-0.32-0.21-0.47-0.27c-0.23-0.09-0.44-0.05-0.61,0.13
		c-0.11,0.11-0.32,0.41-0.01,0.82c0.15,0.2,0.31,0.42,0.5,0.65c0.17,0.21,0.3,0.45,0.38,0.69c0.02,0.07,0.09,0.28-0.22,0.66
		c-0.03,0.05-0.07,0.09-0.11,0.14l-0.42,0.43c-0.87,0.9-1.73,1.79-2.58,2.69c-0.85,0.89-1.71,1.79-2.58,2.68
		c-0.27,0.28-0.58,0.61-0.93,0.99c-0.35,0.38-0.7,0.75-1.05,1.11c-0.34,0.35-0.67,0.65-0.98,0.91c-0.36,0.3-0.59,0.39-0.7,0.42
		c-0.19,0.04-0.39,0.01-0.6-0.08c-0.24-0.1-0.48-0.23-0.71-0.37c-0.24-0.15-0.46-0.27-0.64-0.36c-0.38-0.19-0.59-0.05-0.69,0.05
		c-0.37,0.38-0.16,0.69-0.09,0.77c0.11,0.13,0.24,0.27,0.36,0.39c0.17,0.16,0.34,0.32,0.52,0.47c0.17,0.14,0.32,0.29,0.47,0.43
		l7.83,7.62c0.23,0.22,0.46,0.29,0.65,0.29c0.06,0,0.13-0.01,0.18-0.02l0.09-0.04c0.42-0.28,0.76-0.5,1.02-0.67l0.74-0.48
		c0.22-0.14,0.35-0.23,0.36-0.23c0.05-0.01,0.11-0.05,0.28-0.16c0.1-0.06,0.15-0.1,0.18-0.12c0.16-0.06,0.29-0.17,0.38-0.31
		c0.07-0.1,0.19-0.36-0.13-0.66c-0.2-0.2-0.53-0.16-0.75-0.11c-0.27,0.06-0.56,0.14-0.89,0.24c-0.31,0.1-0.64,0.18-0.97,0.26
		c-0.3,0.07-0.56,0.09-0.77,0.04c-0.12-0.02-0.25-0.08-0.4-0.17c-0.16-0.09-0.32-0.21-0.49-0.34c-0.18-0.14-0.35-0.29-0.54-0.44
		c-0.18-0.16-0.35-0.3-0.49-0.44l-0.51-0.5c-0.1-0.09-0.26-0.26-0.48-0.49c-0.23-0.23-0.46-0.47-0.69-0.72
		c-0.23-0.25-0.44-0.49-0.63-0.73c-0.23-0.29-0.3-0.43-0.32-0.48c-0.04-0.14-0.04-0.27,0.01-0.41c0.05-0.16,0.14-0.33,0.24-0.48
		c0.11-0.16,0.23-0.32,0.36-0.47c0.14-0.15,0.26-0.29,0.38-0.41l2.55-2.62c0.05-0.05,0.12-0.13,0.23-0.25
		c0.09-0.11,0.19-0.2,0.31-0.3c0.11-0.09,0.21-0.17,0.34-0.25c0.05,0.03,0.12,0.08,0.21,0.15c0.1,0.08,0.2,0.16,0.3,0.25l0.3,0.26
		c0.09,0.08,0.16,0.14,0.21,0.19c0.21,0.21,0.45,0.44,0.73,0.7c0.26,0.24,0.5,0.5,0.7,0.78c0.19,0.25,0.32,0.51,0.4,0.76
		c0.06,0.21,0.03,0.41-0.09,0.61L41.3,191.51z"/>
	<path class="st0" d="M57.03,199.46c-0.41,0.24-0.84,0.36-1.27,0.37h-0.02c-0.43,0-0.89-0.1-1.35-0.31
		c-0.49-0.21-0.99-0.49-1.48-0.83c-0.26-0.18-0.37-0.29-0.41-0.35c-0.05-0.07-0.04-0.11-0.04-0.13c0.02-0.08,0.07-0.17,0.15-0.28
		c0.1-0.13,0.22-0.3,0.35-0.49c0.34-0.51,0.74-1.08,1.18-1.71c0.45-0.63,0.84-1.2,1.19-1.71l0.44-0.65
		c0.17-0.26,0.36-0.41,0.54-0.45c0.02-0.01,0.05-0.01,0.08-0.01c0.13,0,0.36,0.06,0.77,0.33c0.45,0.3,0.82,0.65,1.11,1.03
		c0.28,0.37,0.48,0.78,0.58,1.2c0.1,0.42,0.11,0.87,0.02,1.32c-0.09,0.46-0.3,0.94-0.62,1.42C57.85,198.8,57.44,199.21,57.03,199.46
		 M58.07,201.44c0.49-0.1,0.96-0.27,1.39-0.52c0.44-0.25,0.81-0.6,1.11-1.04c0.53-0.79,0.83-1.55,0.88-2.26
		c0.05-0.71-0.05-1.37-0.28-1.98c-0.24-0.6-0.57-1.13-1.01-1.59c-0.42-0.45-0.86-0.83-1.29-1.12c-0.49-0.33-0.99-0.66-1.49-0.97
		c-0.5-0.31-0.99-0.63-1.48-0.96l-1.67-1.13c-0.14-0.09-0.27-0.19-0.4-0.3c-0.14-0.12-0.29-0.22-0.44-0.32
		c-0.16-0.11-0.32-0.19-0.49-0.26c-0.12-0.05-0.44-0.11-0.71,0.27c-0.14,0.2-0.14,0.42,0,0.61c0.09,0.13,0.22,0.26,0.39,0.39
		c0.15,0.12,0.31,0.25,0.49,0.39c0.15,0.12,0.28,0.25,0.39,0.4c0.09,0.12,0.14,0.27,0.15,0.43c0,0.16-0.06,0.34-0.21,0.55
		c-0.73,1.08-1.47,2.16-2.22,3.21c-0.75,1.06-1.49,2.13-2.23,3.22l-2.68,3.94c-0.15,0.23-0.31,0.37-0.47,0.44
		c-0.17,0.07-0.33,0.09-0.53,0.08c-0.19-0.02-0.38-0.07-0.55-0.14c-0.2-0.09-0.39-0.18-0.56-0.26c-0.19-0.09-0.35-0.15-0.48-0.19
		c-0.22-0.07-0.43,0-0.55,0.18c-0.13,0.19-0.25,0.41-0.16,0.61c0.05,0.11,0.16,0.22,0.38,0.37c0.39,0.27,0.81,0.52,1.24,0.75
		c0.41,0.22,0.81,0.47,1.19,0.73c0.45,0.3,0.88,0.63,1.3,0.97c0.44,0.37,0.9,0.71,1.35,1.02c0.28,0.19,0.5,0.31,0.68,0.36
		c0.15,0.05,0.44,0.07,0.69-0.29c0.13-0.19,0.13-0.41-0.02-0.58c-0.09-0.1-0.19-0.2-0.31-0.28c-0.04-0.03-0.06-0.05-0.07-0.05
		l-0.04-0.05c-0.23-0.23-0.43-0.43-0.62-0.59c-0.17-0.14-0.29-0.29-0.37-0.44c-0.07-0.13-0.09-0.28-0.07-0.45
		c0.02-0.18,0.14-0.43,0.34-0.73l2.68-3.94c0.25-0.38,0.37-0.46,0.4-0.47c0,0,0.09-0.02,0.33,0.15c0.42,0.29,0.69,0.62,0.83,1.01
		c0.15,0.41,0.22,0.87,0.22,1.35c0,0.49-0.06,1.02-0.16,1.56c-0.11,0.56-0.2,1.13-0.25,1.66c-0.3,1.29-0.31,2.56-0.04,3.77
		c0.28,1.23,0.92,2.34,1.91,3.3c0.08,0.07,0.19,0.16,0.31,0.27c0.13,0.1,0.25,0.2,0.39,0.3c0.35,0.23,0.61,0.37,0.82,0.43l0.05,0.01
		l0.06-0.01c0.26-0.05,0.43-0.14,0.53-0.27c0.07-0.1,0.19-0.37-0.1-0.68c-0.11-0.12-0.22-0.25-0.33-0.44
		c-0.43-0.44-0.72-0.97-0.87-1.57c-0.15-0.62-0.23-1.28-0.24-1.97c0-0.69,0.05-1.41,0.15-2.12c0.1-0.72,0.2-1.41,0.29-2.05
		c0.09-0.66,0.14-1.25,0.15-1.77c0-0.33-0.04-0.63-0.11-0.88c0.31,0.04,0.63,0.06,0.96,0.07C57.1,201.57,57.59,201.53,58.07,201.44"
		/>
	<path class="st0" d="M74.42,202.82c0.13-0.21,0.24-0.41,0.33-0.61c0.1-0.21,0.17-0.4,0.21-0.57c0.1-0.39-0.14-0.54-0.22-0.58
		c-0.28-0.13-0.53-0.15-0.77-0.04c-0.18,0.08-0.35,0.19-0.5,0.3c-0.12,0.09-0.22,0.15-0.28,0.18c0,0-0.03-0.01-0.08-0.08
		c-0.18-0.28-0.43-0.59-0.72-0.93c-0.31-0.35-0.63-0.61-0.95-0.76c-0.65-0.31-1.32-0.51-2-0.59c-0.68-0.08-1.34-0.05-1.95,0.12
		c-0.62,0.17-1.19,0.46-1.71,0.89c-0.52,0.43-0.95,0.99-1.28,1.69c-0.38,0.8-0.51,1.56-0.39,2.29c0.11,0.7,0.36,1.39,0.71,2.05
		c0.35,0.64,0.77,1.28,1.25,1.89c0.46,0.59,0.88,1.19,1.24,1.78c0.35,0.58,0.59,1.17,0.73,1.75c0.13,0.56,0.05,1.14-0.24,1.74
		c-0.2,0.41-0.44,0.75-0.73,1.01c-0.29,0.25-0.61,0.44-0.96,0.55c-0.35,0.11-0.72,0.15-1.11,0.12c-0.39-0.03-0.78-0.15-1.17-0.33
		c-0.53-0.25-0.98-0.64-1.34-1.16c-0.35-0.51-0.53-1.07-0.52-1.68c0-0.15,0.02-0.33,0.06-0.53l0.13-0.61
		c0.05-0.21,0.07-0.4,0.07-0.56c0-0.32-0.18-0.46-0.28-0.51c-0.02-0.01-0.04-0.03-0.07-0.05c-0.06-0.05-0.13-0.09-0.2-0.13
		c-0.1-0.05-0.23-0.06-0.36-0.03c-0.13,0.04-0.25,0.14-0.36,0.32c-0.2,0.35-0.38,0.68-0.53,0.97c-0.15,0.29-0.31,0.62-0.48,0.98
		c-0.07,0.15-0.18,0.34-0.31,0.57c-0.14,0.25-0.27,0.49-0.39,0.73c-0.12,0.26-0.21,0.48-0.27,0.67c-0.13,0.44,0.09,0.59,0.19,0.64
		c0.27,0.13,0.5,0.16,0.7,0.09c0.16-0.05,0.32-0.13,0.47-0.22c0.11-0.08,0.22-0.14,0.33-0.19c0.06-0.03,0.16,0,0.22,0.04
		c0.12,0.06,0.25,0.15,0.37,0.28c0.14,0.15,0.3,0.32,0.46,0.49c0.17,0.18,0.35,0.36,0.56,0.54c0.21,0.19,0.46,0.36,0.75,0.5
		c0.75,0.34,1.5,0.56,2.22,0.65c0.24,0.03,0.47,0.05,0.7,0.05c0.48,0,0.94-0.06,1.39-0.19c0.66-0.19,1.27-0.53,1.81-1.01
		c0.54-0.48,1.01-1.13,1.39-1.92c0.34-0.75,0.5-1.54,0.47-2.36c-0.03-0.82-0.26-1.59-0.68-2.3c-0.33-0.54-0.74-1.12-1.23-1.71
		c-0.47-0.58-0.91-1.18-1.29-1.77c-0.38-0.58-0.65-1.18-0.82-1.78c-0.16-0.56-0.11-1.1,0.14-1.64c0.16-0.34,0.38-0.63,0.64-0.84
		c0.26-0.22,0.54-0.37,0.85-0.45c0.31-0.08,0.64-0.1,0.99-0.06c0.35,0.04,0.7,0.14,1.04,0.31c0.4,0.19,0.73,0.52,1,0.97
		c0.27,0.45,0.39,0.98,0.36,1.6c0.01,0.15,0,0.32-0.04,0.5c-0.05,0.21-0.09,0.41-0.14,0.6c-0.04,0.21-0.07,0.4-0.07,0.56
		c-0.01,0.34,0.16,0.47,0.26,0.52c0.01,0.01,0.04,0.02,0.08,0.06c0.06,0.05,0.13,0.1,0.21,0.13c0.11,0.06,0.24,0.06,0.36,0.02
		c0.11-0.04,0.21-0.13,0.35-0.31c0.41-0.7,0.78-1.43,1.11-2.16C74.21,203.18,74.3,203.01,74.42,202.82"/>
	<path class="st0" d="M85.83,205.7l-2.01-0.66c-0.21-0.07-0.43-0.13-0.67-0.18c-0.22-0.05-0.43-0.1-0.62-0.17
		c-0.42-0.14-0.83-0.3-1.24-0.48c-0.42-0.18-0.85-0.35-1.29-0.49l-0.24-0.08c-0.13-0.04-0.27-0.08-0.43-0.1
		c-0.27-0.04-0.48,0.09-0.56,0.35c-0.13,0.4,0.04,0.63,0.15,0.73c0.14,0.12,0.33,0.23,0.55,0.32c0.19,0.08,0.39,0.17,0.59,0.28
		c0.16,0.09,0.28,0.21,0.36,0.35c0.02,0.06,0.05,0.21-0.01,0.56c-0.05,0.29-0.11,0.56-0.19,0.8l-0.14,0.42
		c-0.12,0.36-0.24,0.73-0.37,1.09c-0.13,0.37-0.25,0.74-0.38,1.12l-2.68,8.15c-0.09,0.27-0.2,0.55-0.33,0.82
		c-0.1,0.22-0.22,0.37-0.35,0.42c-0.15,0.07-0.32,0.09-0.52,0.08c-0.23-0.02-0.45-0.04-0.66-0.07c-0.22-0.03-0.42-0.05-0.6-0.04
		c-0.27,0-0.46,0.14-0.54,0.37c-0.12,0.37,0.06,0.58,0.18,0.68c0.14,0.12,0.31,0.2,0.48,0.26l0.31,0.1
		c0.44,0.14,0.86,0.25,1.25,0.32c0.35,0.06,0.75,0.16,1.18,0.3c0.4,0.13,0.8,0.28,1.19,0.46c0.39,0.18,0.81,0.34,1.23,0.47
		c0.23,0.08,0.46,0.14,0.68,0.19c0.06,0.01,0.11,0.02,0.16,0.02c0.27,0,0.47-0.16,0.56-0.44c0.04-0.11,0.09-0.4-0.25-0.62
		c-0.16-0.1-0.33-0.21-0.54-0.32c-0.2-0.11-0.4-0.22-0.61-0.34c-0.17-0.09-0.3-0.2-0.37-0.32c-0.09-0.17-0.12-0.37-0.07-0.62
		c0.06-0.29,0.12-0.56,0.2-0.78l1.83-5.61c0.3-0.92,0.61-1.83,0.93-2.73c0.32-0.91,0.63-1.82,0.93-2.74
		c0.08-0.26,0.16-0.48,0.24-0.66c0.06-0.14,0.14-0.25,0.24-0.32c0.1-0.07,0.24-0.09,0.43-0.09c0.21,0.01,0.52,0.08,0.89,0.2
		c0.23,0.07,0.44,0.12,0.63,0.12c0.13,0,0.45-0.03,0.6-0.47v0c0.02-0.07,0.03-0.17,0.03-0.28c-0.01-0.12-0.03-0.21-0.06-0.28
		L85.83,205.7z"/>
	<path class="st0" d="M103.58,208.25c-0.11-0.01-0.29,0-0.45,0.2c-0.07,0.08-0.16,0.18-0.27,0.28c-0.1,0.09-0.21,0.18-0.33,0.26
		c-0.1,0.06-0.22,0.09-0.35,0.09c-0.22-0.01-0.45-0.03-0.68-0.06c-0.23-0.03-0.46-0.06-0.69-0.1c-0.73-0.12-1.44-0.23-2.12-0.32
		c-0.68-0.09-1.38-0.2-2.11-0.32c-0.91-0.15-1.84-0.31-2.79-0.5c-0.95-0.18-1.88-0.37-2.79-0.56c-0.18-0.04-0.31-0.1-0.39-0.18
		c-0.1-0.1-0.17-0.19-0.22-0.28c-0.06-0.11-0.11-0.2-0.15-0.28c-0.07-0.16-0.2-0.26-0.36-0.28c-0.26-0.04-0.48-0.01-0.66,0.11
		c-0.15,0.1-0.28,0.25-0.38,0.43c-0.09,0.16-0.16,0.35-0.21,0.56l-0.13,0.53c-0.2,0.76-0.4,1.35-0.59,1.75
		c-0.2,0.44-0.32,0.79-0.37,1.07c-0.04,0.24,0,0.43,0.12,0.56c0.1,0.12,0.26,0.19,0.47,0.23c0.19,0.04,0.36-0.11,0.56-0.35
		c0.17-0.2,0.35-0.42,0.53-0.67c0.18-0.24,0.35-0.48,0.52-0.7c0.2-0.28,0.29-0.35,0.31-0.37c0.31-0.22,0.63-0.34,0.93-0.38
		c0.32-0.05,0.65-0.04,0.97,0.02l1.42,0.23c0.34,0.06,0.67,0.14,0.97,0.24c0.24,0.08,0.3,0.15,0.31,0.15c0,0.07-0.01,0.2-0.03,0.39
		c-0.03,0.2-0.05,0.34-0.06,0.42l-1.82,11.05c-0.07,0.41-0.15,0.76-0.24,1.03c-0.08,0.24-0.19,0.44-0.33,0.58
		c-0.13,0.13-0.32,0.23-0.56,0.28c-0.26,0.06-0.6,0.07-1.07,0.05c-0.02,0-0.08,0-0.24-0.02c-0.19-0.03-0.36-0.02-0.54,0.01
		c-0.14,0.03-0.39,0.14-0.45,0.52c-0.06,0.34,0.13,0.53,0.32,0.58c0.14,0.04,0.27,0.07,0.4,0.09c0.56,0.09,1.11,0.16,1.66,0.21
		c0.54,0.05,1.08,0.12,1.63,0.21c0.6,0.1,1.2,0.22,1.79,0.35c0.6,0.14,1.22,0.26,1.82,0.36c0.21,0.04,0.38,0.05,0.5,0.06h0.01
		c0.17,0,0.39-0.1,0.46-0.57c0.03-0.15,0.02-0.51-0.52-0.66l-0.89-0.25c-0.3-0.08-0.58-0.21-0.84-0.39
		c-0.21-0.15-0.32-0.39-0.33-0.76c0-0.24,0.01-0.47,0.04-0.7c0.03-0.24,0.07-0.48,0.11-0.72c0.25-1.33,0.47-2.68,0.65-4.03
		c0.19-1.35,0.4-2.7,0.65-4.01l0.5-2.78c0.06-0.33,0.11-0.58,0.17-0.73c0.07-0.18,0.12-0.22,0.18-0.24c0.1,0.03,0.2,0.05,0.32,0.06
		c0.12,0.02,0.28,0.04,0.47,0.07c0.18,0.02,0.38,0.05,0.61,0.09c0.3,0.05,0.62,0.11,0.95,0.19c0.32,0.08,0.64,0.17,0.93,0.27
		c0.27,0.09,0.5,0.21,0.68,0.35c0.15,0.11,0.25,0.24,0.28,0.37c0.05,0.21,0.04,0.42-0.01,0.64c-0.06,0.25-0.11,0.49-0.17,0.7
		c-0.07,0.25-0.09,0.45-0.09,0.62c0.01,0.13,0.07,0.43,0.49,0.5c0.24,0.04,0.58-0.03,0.83-0.56c0.16-0.33,0.3-0.72,0.44-1.19
		c0.13-0.45,0.25-0.91,0.37-1.39c0.11-0.45,0.24-0.8,0.38-1.06v0c0.12-0.21,0.15-0.44,0.11-0.71
		C104.2,208.65,104.07,208.33,103.58,208.25"/>
	<path class="st0" d="M123.48,208.96c-0.21-0.08-0.45-0.12-0.69-0.11c-0.41,0.02-0.82,0.06-1.22,0.12c-0.38,0.06-0.77,0.1-1.16,0.12
		c-0.35,0.01-0.69,0-1.03-0.03c-0.36-0.03-0.73-0.05-1.1-0.04c-0.18,0.01-0.31,0.02-0.42,0.06c-0.14,0.04-0.3,0.18-0.29,0.56
		c0.01,0.34,0.21,0.56,0.55,0.61c0.22,0.03,0.46,0.05,0.74,0.06c0.23,0.01,0.45,0.04,0.65,0.09c0.08,0.02,0.16,0.06,0.17,0.22
		c0,0.01-0.03,0.1-0.23,0.44c-0.17,0.3-0.4,0.66-0.67,1.08c-0.27,0.43-0.57,0.89-0.89,1.38c-0.32,0.49-0.63,0.96-0.93,1.39
		c-0.3,0.43-0.57,0.81-0.8,1.13c-0.28,0.39-0.4,0.55-0.46,0.6c-0.02,0.03-0.06,0.06-0.09,0.09l-0.12-0.16
		c-0.41-0.47-0.81-0.97-1.19-1.49c-0.39-0.52-0.77-1.04-1.17-1.58c-0.15-0.18-0.33-0.41-0.54-0.67c-0.21-0.26-0.42-0.53-0.62-0.8
		c-0.21-0.28-0.38-0.54-0.52-0.79c-0.16-0.27-0.2-0.43-0.21-0.52c0-0.09,0.01-0.12,0.12-0.14c0.2-0.04,0.42-0.07,0.67-0.09
		c0.26-0.02,0.51-0.05,0.74-0.1c0.33-0.07,0.52-0.31,0.5-0.66c0-0.17-0.1-0.31-0.3-0.43c-0.16-0.1-0.29-0.14-0.43-0.14
		c-0.61,0.02-1.22,0.07-1.81,0.14c-0.57,0.07-1.16,0.12-1.74,0.14c-0.42,0.02-0.84,0-1.24-0.05c-0.43-0.05-0.87-0.07-1.31-0.05
		c-0.14,0-0.26,0.02-0.38,0.04c-0.09,0.02-0.37,0.1-0.35,0.51c0.01,0.28,0.17,0.48,0.44,0.56c0.18,0.05,0.39,0.1,0.64,0.14
		c0.23,0.05,0.47,0.12,0.72,0.21c0.22,0.08,0.4,0.22,0.56,0.43c0.87,1.18,1.74,2.33,2.6,3.45c0.86,1.12,1.73,2.27,2.6,3.45
		c0.17,0.22,0.26,0.46,0.28,0.74c0.02,0.32,0.05,0.72,0.06,1.19l0.06,2.04c0.01,0.28,0.01,0.57,0.02,0.87c0,0.31,0,0.59-0.02,0.85
		c-0.01,0.26-0.04,0.49-0.08,0.69c-0.04,0.22-0.09,0.31-0.11,0.34c-0.13,0.15-0.3,0.24-0.53,0.29c-0.28,0.06-0.56,0.11-0.82,0.15
		c-0.29,0.05-0.54,0.13-0.73,0.23c-0.13,0.07-0.4,0.28-0.25,0.75c0.02,0.17,0.13,0.29,0.29,0.32c0.07,0.02,0.14,0.02,0.21,0.02h0.02
		c0.56-0.02,1.12-0.06,1.67-0.14c0.53-0.07,1.08-0.11,1.63-0.13c0.59-0.02,1.2-0.01,1.8,0.02c0.62,0.04,1.24,0.04,1.84,0.02
		c0.33-0.01,0.48-0.17,0.55-0.3c0.08-0.15,0.12-0.31,0.11-0.5l-0.02-0.09c-0.1-0.22-0.28-0.37-0.51-0.42
		c-0.17-0.04-0.37-0.06-0.6-0.06c-0.2,0-0.42,0-0.64-0.01c-0.19-0.01-0.36-0.05-0.52-0.12c-0.14-0.07-0.26-0.19-0.37-0.36
		c-0.11-0.18-0.17-0.46-0.18-0.83l-0.15-4.6c-0.01-0.3,0.06-0.62,0.21-0.96c0.16-0.36,0.36-0.72,0.61-1.08
		c0.25-0.36,0.53-0.73,0.81-1.08c0.29-0.36,0.56-0.7,0.8-1.02c0.52-0.71,1.03-1.42,1.54-2.14c0.51-0.71,1.04-1.41,1.58-2.08
		c0.14-0.17,0.29-0.29,0.44-0.36c0.18-0.08,0.36-0.13,0.53-0.17c0.19-0.04,0.36-0.08,0.52-0.13c0.22-0.06,0.38-0.19,0.48-0.39
		c0.07-0.17,0.08-0.32,0.02-0.46C123.74,209.16,123.66,209.04,123.48,208.96"/>
	<path class="st0" d="M152.7,214.08c0,0.88-0.2,1.73-0.59,2.52c-0.39,0.78-1.07,1.45-2.03,1.99c-0.99,0.57-1.95,0.84-2.83,0.81
		c-0.91-0.04-1.76-0.27-2.54-0.7c-0.79-0.43-1.51-1.01-2.15-1.72c-0.65-0.71-1.2-1.47-1.64-2.26c-0.45-0.76-0.83-1.58-1.13-2.46
		c-0.3-0.87-0.45-1.74-0.45-2.59c0-0.84,0.21-1.66,0.6-2.42c0.39-0.76,1.09-1.43,2.06-1.99c0.91-0.53,1.81-0.8,2.67-0.81h0.05
		c0.85,0,1.68,0.18,2.44,0.55c0.79,0.37,1.53,0.91,2.2,1.59c0.67,0.68,1.27,1.46,1.76,2.3c0.43,0.76,0.8,1.6,1.11,2.5
		C152.54,212.28,152.69,213.19,152.7,214.08 M152.71,205.52c-0.83-0.86-1.78-1.53-2.83-1.99c-1.05-0.45-2.19-0.7-3.38-0.74
		c-1.21-0.04-2.39,0.16-3.56,0.58c-1.22,0.43-2.28,1.06-3.14,1.87c-0.87,0.81-1.55,1.74-2.03,2.79c-0.47,1.04-0.73,2.18-0.78,3.38
		c-0.04,1.2,0.16,2.44,0.6,3.66c0.44,1.23,1.05,2.3,1.83,3.19c0.78,0.89,1.68,1.59,2.68,2.09c1,0.5,2.1,0.78,3.28,0.84
		c0.14,0.01,0.29,0.01,0.43,0.01c1.03,0,2.09-0.19,3.15-0.57c1.22-0.43,2.29-1.09,3.19-1.94c0.9-0.85,1.62-1.82,2.13-2.9
		c0.51-1.08,0.81-2.24,0.88-3.47c0.07-1.22-0.1-2.45-0.53-3.64C154.18,207.46,153.53,206.39,152.71,205.52"/>
	<path class="st0" d="M168.13,209.75c-0.23,0.07-0.5,0.18-0.79,0.31c-0.26,0.12-0.54,0.22-0.84,0.29c-0.24,0.06-0.45,0.01-0.69-0.14
		c0,0-0.04-0.03-0.1-0.13c-0.08-0.12-0.17-0.25-0.27-0.4c-0.1-0.14-0.19-0.28-0.28-0.44l-0.52-0.88c-0.35-0.6-0.69-1.19-1.02-1.79
		c-0.33-0.59-0.67-1.19-1.02-1.79c-0.05-0.08-0.03-0.12-0.02-0.16c0.05-0.09,0.12-0.18,0.21-0.26c0.12-0.09,0.24-0.18,0.38-0.25
		c0.16-0.08,0.28-0.15,0.38-0.21l0.54-0.31c0.3-0.18,0.64-0.36,1.02-0.56c0.36-0.18,0.65-0.3,0.87-0.34
		c0.28-0.07,0.52-0.05,0.72,0.06c0.25,0.14,0.47,0.3,0.65,0.48l0.55,0.52c0.33,0.31,0.6,0.23,0.74,0.15
		c0.21-0.12,0.26-0.29,0.27-0.41c0.01-0.13-0.01-0.27-0.06-0.41c-0.05-0.13-0.11-0.26-0.19-0.37c-0.06-0.09-0.11-0.17-0.16-0.25
		c-0.18-0.3-0.35-0.58-0.54-0.86c-0.18-0.26-0.35-0.54-0.52-0.82c-0.17-0.29-0.33-0.58-0.48-0.86c-0.15-0.29-0.31-0.58-0.49-0.88
		c-0.04-0.07-0.11-0.18-0.22-0.3c-0.19-0.24-0.43-0.23-0.59-0.14c-0.3,0.17-0.36,0.41-0.36,0.58c0,0.18,0.03,0.37,0.09,0.57
		c0.05,0.18,0.1,0.38,0.15,0.59c0.04,0.18,0.04,0.36-0.01,0.53c-0.03,0.11-0.1,0.23-0.22,0.35c-0.14,0.15-0.32,0.31-0.52,0.47
		c-0.21,0.17-0.44,0.33-0.67,0.47c-0.25,0.15-0.48,0.3-0.71,0.43l-0.72,0.42c-0.15,0.09-0.29,0.17-0.41,0.26
		c-0.09,0.06-0.19,0.1-0.28,0.12c-0.04,0.01-0.1,0.01-0.19-0.04c-0.04-0.03-0.14-0.1-0.27-0.32c-0.35-0.6-0.71-1.2-1.06-1.8
		c-0.36-0.59-0.71-1.19-1.06-1.79c-0.15-0.25-0.27-0.5-0.37-0.75c-0.08-0.19-0.06-0.39,0.06-0.62c0.05-0.09,0.17-0.24,0.5-0.49
		c0.28-0.22,0.55-0.4,0.81-0.55l0.44-0.25c0.15-0.08,0.34-0.2,0.59-0.33c0.25-0.14,0.5-0.27,0.77-0.4c0.27-0.13,0.53-0.25,0.78-0.36
		c0.23-0.1,0.43-0.17,0.57-0.19c0.29-0.05,0.53-0.01,0.74,0.13c0.24,0.17,0.45,0.36,0.63,0.56c0.2,0.22,0.38,0.42,0.55,0.58
		c0.24,0.23,0.54,0.27,0.84,0.09c0.19-0.11,0.24-0.26,0.25-0.37c0.01-0.11,0-0.24-0.05-0.36c-0.04-0.1-0.09-0.2-0.15-0.31
		l-0.15-0.26c-0.06-0.1-0.16-0.29-0.3-0.54c-0.14-0.26-0.3-0.52-0.46-0.78c-0.16-0.26-0.32-0.49-0.47-0.69
		c-0.1-0.13-0.33-0.43-0.66-0.31c-0.02,0.01-0.07,0.04-0.14,0.07c-0.09,0.04-0.19,0.1-0.3,0.16l-0.44,0.26
		c-0.61,0.36-1.22,0.72-1.81,1.07c-0.59,0.36-1.2,0.72-1.81,1.07l-3.1,1.81c-0.1,0.06-0.3,0.17-0.59,0.33
		c-0.29,0.16-0.6,0.34-0.92,0.53c-0.35,0.2-0.62,0.37-0.81,0.49c-0.21,0.13-0.36,0.25-0.46,0.36c-0.13,0.14-0.18,0.29-0.18,0.42
		c0.01,0.11,0.04,0.22,0.11,0.33v0c0.12,0.21,0.32,0.3,0.56,0.25c0.15-0.04,0.31-0.1,0.49-0.19c0.15-0.08,0.32-0.17,0.51-0.26
		c0.16-0.08,0.32-0.12,0.49-0.14c0.15-0.01,0.31,0.02,0.47,0.1c0.16,0.08,0.32,0.27,0.49,0.54c0.78,1.33,1.56,2.64,2.33,3.92
		c0.77,1.28,1.55,2.58,2.33,3.91l0.43,0.74c0.14,0.24,0.29,0.5,0.45,0.79c0.16,0.29,0.31,0.57,0.46,0.85
		c0.15,0.27,0.26,0.52,0.36,0.75c0.12,0.28,0.14,0.38,0.14,0.44c0.04,0.24-0.04,0.44-0.26,0.63c-0.04,0.05-0.12,0.12-0.29,0.25
		c-0.16,0.12-0.31,0.24-0.46,0.37c-0.16,0.14-0.29,0.28-0.39,0.43c-0.18,0.28-0.1,0.5-0.04,0.61c0.11,0.18,0.26,0.27,0.44,0.27
		c0.07,0,0.15-0.02,0.23-0.05c0.17-0.07,0.31-0.14,0.43-0.21c0.38-0.22,0.75-0.47,1.09-0.74c0.33-0.26,0.68-0.49,1.06-0.71
		c0.48-0.28,0.99-0.55,1.5-0.79c0.52-0.24,1.04-0.51,1.54-0.8l0.2-0.12c0.16-0.09,0.3-0.21,0.42-0.35c0.16-0.2,0.19-0.43,0.06-0.64
		C168.75,209.75,168.46,209.64,168.13,209.75"/>
	<path class="st0" d="M193.13,189.35l-0.71,0.58c-0.24,0.2-0.51,0.35-0.81,0.46c-0.24,0.09-0.5,0.04-0.8-0.17
		c-0.19-0.13-0.38-0.28-0.56-0.44c-0.18-0.16-0.36-0.33-0.53-0.5c-0.95-0.97-1.94-1.93-2.93-2.84c-1-0.92-1.98-1.87-2.91-2.83
		l-1.99-2.01c-0.24-0.23-0.41-0.42-0.5-0.56c-0.1-0.16-0.11-0.23-0.09-0.29c0.07-0.06,0.15-0.14,0.23-0.22
		c0.09-0.09,0.2-0.2,0.32-0.35c0.12-0.13,0.26-0.29,0.42-0.45c0.21-0.22,0.44-0.44,0.7-0.67c0.25-0.22,0.5-0.43,0.75-0.61
		c0.23-0.17,0.46-0.29,0.67-0.36c0.18-0.06,0.34-0.07,0.47-0.02c0.19,0.08,0.37,0.21,0.52,0.37c0.18,0.19,0.33,0.37,0.47,0.54
		c0.16,0.19,0.31,0.33,0.46,0.43c0.22,0.14,0.48,0.1,0.69-0.11c0.17-0.17,0.31-0.49,0.02-1.01c-0.18-0.32-0.42-0.67-0.72-1.04
		c-0.3-0.36-0.61-0.73-0.93-1.1c-0.3-0.34-0.52-0.65-0.65-0.92c-0.1-0.21-0.28-0.38-0.53-0.49c-0.17-0.08-0.5-0.16-0.84,0.19
		c-0.08,0.08-0.17,0.24-0.1,0.49c0.03,0.11,0.05,0.23,0.07,0.38c0.02,0.13,0.03,0.28,0.02,0.42c-0.01,0.12-0.05,0.23-0.13,0.34
		c-0.13,0.18-0.28,0.36-0.44,0.53c-0.16,0.18-0.32,0.34-0.48,0.51c-0.52,0.53-1.01,1.05-1.48,1.55c-0.46,0.5-0.96,1.02-1.47,1.55
		c-0.65,0.66-1.31,1.33-2.01,2.01c-0.69,0.68-1.38,1.33-2.05,1.96c-0.14,0.12-0.26,0.2-0.38,0.22c-0.13,0.03-0.25,0.03-0.35,0.02
		c-0.12-0.01-0.23-0.03-0.32-0.04c-0.17-0.02-0.33,0.02-0.44,0.13c-0.18,0.19-0.28,0.39-0.28,0.6c-0.01,0.19,0.04,0.38,0.13,0.56
		c0.08,0.17,0.19,0.33,0.34,0.49l0.35,0.41c0.51,0.6,0.87,1.1,1.1,1.48c0.24,0.42,0.46,0.72,0.67,0.92
		c0.18,0.17,0.35,0.24,0.53,0.23c0.16-0.02,0.31-0.1,0.46-0.26c0.13-0.14,0.11-0.36,0.03-0.66c-0.06-0.25-0.15-0.52-0.24-0.82
		c-0.09-0.29-0.19-0.56-0.28-0.82c-0.11-0.32-0.12-0.44-0.12-0.47c0.01-0.38,0.08-0.72,0.22-0.99c0.15-0.29,0.34-0.55,0.57-0.79
		l1-1.03c0.25-0.25,0.5-0.48,0.76-0.66c0.22-0.16,0.31-0.17,0.3-0.17c0.06,0.04,0.16,0.13,0.3,0.25c0.15,0.14,0.25,0.23,0.31,0.29
		l8.02,7.82c0.3,0.29,0.54,0.55,0.71,0.78c0.15,0.2,0.25,0.41,0.28,0.6c0.03,0.18,0,0.39-0.09,0.62c-0.1,0.25-0.29,0.54-0.57,0.9
		c-0.01,0.02-0.04,0.07-0.16,0.18c-0.13,0.13-0.23,0.28-0.3,0.45c-0.06,0.13-0.11,0.4,0.17,0.67c0.12,0.12,0.25,0.18,0.38,0.18
		c0.1,0,0.2-0.04,0.28-0.11c0.11-0.09,0.21-0.18,0.31-0.28c0.39-0.4,0.76-0.81,1.13-1.24c0.34-0.4,0.71-0.81,1.1-1.21
		c0.43-0.44,0.88-0.87,1.32-1.27c0.45-0.41,0.9-0.84,1.34-1.29c0.15-0.15,0.26-0.28,0.33-0.37c0.1-0.14,0.15-0.37-0.2-0.71
		C193.87,189.2,193.57,188.99,193.13,189.35"/>
	<path class="st0" d="M195.96,173.13c-0.52,0.75-0.93,1.34-1.22,1.76c-0.3,0.44-0.52,0.77-0.67,0.98l-0.15,0.21
		c-0.34-0.54-0.63-0.99-0.86-1.36c-0.28-0.44-0.53-0.83-0.76-1.18c-0.22-0.34-0.44-0.68-0.65-1.02c-0.13-0.21-0.28-0.44-0.43-0.7
		c0.03,0.01,0.07,0.02,0.11,0.03c0.38,0.11,0.84,0.24,1.38,0.39c0.54,0.15,1.12,0.32,1.75,0.49
		C194.98,172.86,195.48,173,195.96,173.13 M207.51,171.31c-0.25-0.18-0.53-0.17-0.76,0.02c-0.16,0.13-0.33,0.28-0.51,0.46
		c-0.17,0.17-0.36,0.32-0.57,0.47c-0.17,0.12-0.37,0.15-0.63,0.11c-1.8-0.3-3.59-0.63-5.31-0.99c-1.76-0.37-3.52-0.77-5.26-1.2
		l-2.82-0.65c-0.96-0.22-1.9-0.44-2.82-0.65c-0.1-0.02-0.21-0.04-0.34-0.03c-0.18,0-0.34,0.09-0.45,0.24
		c-0.12,0.17-0.15,0.33-0.1,0.47c0.03,0.09,0.08,0.18,0.14,0.26c0.82,1.27,1.64,2.54,2.45,3.8c0.81,1.27,1.62,2.53,2.44,3.81
		l1.44,2.24c0.47,0.74,0.96,1.48,1.45,2.22c0.06,0.1,0.16,0.25,0.3,0.45c0.13,0.19,0.26,0.4,0.39,0.61
		c0.13,0.21,0.25,0.42,0.37,0.61c0.15,0.25,0.19,0.33,0.2,0.37c0.07,0.18,0.09,0.34,0.05,0.48c-0.06,0.18-0.12,0.35-0.19,0.5
		c-0.09,0.19-0.14,0.36-0.17,0.52c-0.02,0.16,0.01,0.4,0.32,0.61v0c0.12,0.08,0.25,0.12,0.39,0.12c0.12-0.01,0.3-0.04,0.44-0.24
		c0.21-0.3,0.39-0.59,0.52-0.85c0.13-0.24,0.29-0.51,0.49-0.79c0.28-0.4,0.59-0.79,0.91-1.16c0.34-0.39,0.66-0.8,0.94-1.21
		c0.11-0.15,0.15-0.33,0.13-0.51c-0.03-0.19-0.12-0.35-0.28-0.46c-0.28-0.2-0.6-0.17-0.87,0.08c-0.19,0.18-0.4,0.39-0.59,0.62
		c-0.19,0.21-0.38,0.39-0.58,0.53c-0.09,0.06-0.22,0.1-0.44-0.06c-0.01-0.01-0.09-0.08-0.4-0.45c-0.23-0.28-0.51-0.64-0.84-1.08
		c-0.32-0.43-0.69-0.93-1.07-1.5c-0.35-0.51-0.71-1.05-1.06-1.62c0.07-0.15,0.17-0.32,0.29-0.52c0.16-0.25,0.32-0.5,0.5-0.75
		c0.19-0.26,0.37-0.51,0.54-0.75c0.18-0.24,0.32-0.44,0.43-0.6l0.25-0.36c0.15-0.21,0.3-0.41,0.45-0.59
		c0.12-0.14,0.24-0.23,0.34-0.24c0,0,0.04,0,0.18,0.03c0.14,0.03,0.29,0.06,0.45,0.08l1.71,0.38c0.55,0.12,1.05,0.24,1.5,0.35
		l1.17,0.28c0.32,0.08,0.56,0.14,0.71,0.19l0.14,0.05c0.04,0.02,0.06,0.03,0.08,0.04c0.17,0.12,0.14,0.2,0.12,0.26
		c-0.07,0.19-0.17,0.4-0.3,0.61c-0.15,0.24-0.27,0.45-0.37,0.65c-0.15,0.3-0.1,0.58,0.14,0.75c0.17,0.12,0.37,0.16,0.58,0.1
		c0.2-0.05,0.35-0.16,0.47-0.32c0.31-0.44,0.61-0.91,0.88-1.38c0.27-0.46,0.56-0.91,0.86-1.34c0.2-0.29,0.43-0.58,0.67-0.84
		c0.25-0.28,0.5-0.58,0.71-0.89l0.15-0.21c0.1-0.15,0.18-0.32,0.24-0.51C207.78,171.68,207.71,171.45,207.51,171.31"/>
	<path class="st0" d="M203.78,158.69c-0.13,0.52-0.33,1.05-0.59,1.59c-0.13,0.28-0.22,0.4-0.28,0.46c-0.07,0.07-0.1,0.06-0.12,0.06
		c-0.08-0.01-0.18-0.04-0.3-0.1c-0.14-0.08-0.32-0.17-0.54-0.27c-0.56-0.26-1.18-0.56-1.87-0.91c-0.69-0.34-1.32-0.65-1.88-0.91
		l-0.71-0.33c-0.28-0.13-0.46-0.29-0.53-0.47c-0.04-0.09-0.07-0.33,0.19-0.88c0.23-0.49,0.52-0.91,0.85-1.25
		c0.33-0.34,0.69-0.59,1.09-0.76c0.37-0.15,0.77-0.23,1.2-0.23h0.11c0.47,0.02,0.97,0.15,1.5,0.4c0.63,0.3,1.11,0.64,1.41,1.01
		c0.3,0.37,0.49,0.77,0.56,1.19C203.94,157.72,203.91,158.19,203.78,158.69 M216.7,154.33c-0.11-0.05-0.39-0.13-0.65,0.2
		c-0.1,0.13-0.21,0.25-0.38,0.4c-0.38,0.49-0.85,0.86-1.42,1.1c-0.58,0.25-1.23,0.43-1.91,0.54c-0.69,0.11-1.4,0.17-2.11,0.19
		c-0.73,0.02-1.42,0.03-2.07,0.03c-0.66,0.01-1.26,0.05-1.77,0.13c-0.33,0.05-0.61,0.13-0.85,0.25c-0.01-0.32-0.04-0.64-0.08-0.96
		c-0.06-0.49-0.18-0.98-0.35-1.44c-0.18-0.47-0.42-0.9-0.73-1.29c-0.32-0.4-0.72-0.71-1.2-0.94c-0.86-0.41-1.66-0.59-2.37-0.52
		c-0.71,0.06-1.35,0.26-1.91,0.59c-0.56,0.33-1.03,0.75-1.42,1.24c-0.38,0.48-0.68,0.97-0.91,1.45c-0.25,0.53-0.49,1.07-0.73,1.63
		c-0.23,0.54-0.47,1.08-0.72,1.61l-0.86,1.82c-0.07,0.15-0.15,0.3-0.23,0.44c-0.09,0.16-0.18,0.32-0.25,0.48
		c-0.08,0.17-0.14,0.35-0.18,0.53c-0.03,0.13-0.05,0.46,0.38,0.66c0.22,0.1,0.44,0.07,0.61-0.09c0.11-0.11,0.22-0.26,0.33-0.44
		l0.3-0.54c0.1-0.17,0.21-0.32,0.33-0.45c0.11-0.11,0.24-0.18,0.4-0.21c0.16-0.03,0.35,0.01,0.58,0.12c1.18,0.56,2.36,1.13,3.52,1.7
		c1.17,0.57,2.34,1.14,3.53,1.7l4.31,2.03c0.25,0.12,0.42,0.25,0.51,0.4c0.09,0.16,0.15,0.33,0.16,0.51c0.01,0.19,0,0.38-0.05,0.57
		c-0.06,0.21-0.11,0.41-0.17,0.59c-0.06,0.2-0.1,0.37-0.12,0.51c-0.03,0.23,0.06,0.42,0.26,0.52c0.13,0.06,0.28,0.12,0.42,0.12
		c0.07,0,0.14-0.02,0.2-0.06c0.1-0.07,0.2-0.2,0.31-0.43c0.21-0.44,0.39-0.89,0.56-1.34c0.15-0.43,0.33-0.87,0.53-1.3
		c0.23-0.48,0.48-0.96,0.76-1.43c0.29-0.49,0.56-0.99,0.79-1.49c0.15-0.31,0.23-0.54,0.26-0.73c0.02-0.16,0-0.45-0.4-0.63
		c-0.21-0.1-0.42-0.06-0.57,0.11c-0.09,0.1-0.17,0.22-0.22,0.35c-0.03,0.06-0.05,0.09-0.07,0.12c-0.19,0.26-0.36,0.5-0.49,0.71
		c-0.12,0.18-0.24,0.33-0.38,0.43c-0.12,0.09-0.26,0.13-0.43,0.14c-0.11,0.01-0.36-0.03-0.77-0.23l-4.31-2.03
		c-0.41-0.19-0.51-0.3-0.53-0.33c0,0-0.03-0.08,0.09-0.35c0.21-0.45,0.51-0.78,0.87-0.98c0.38-0.21,0.82-0.35,1.3-0.42
		c0.49-0.07,1.02-0.1,1.57-0.08c0.57,0.02,1.15,0.02,1.68-0.01c1.31,0.09,2.57-0.09,3.73-0.55c1.17-0.46,2.17-1.27,2.97-2.4
		c0.06-0.09,0.13-0.21,0.21-0.34c0.08-0.14,0.16-0.28,0.23-0.43c0.18-0.38,0.28-0.66,0.3-0.88l0-0.06l-0.02-0.05
		C216.96,154.56,216.85,154.4,216.7,154.33"/>
	<path class="st0" d="M219.68,139.69c-0.15-0.04-0.5-0.07-0.71,0.45l-0.34,0.86c-0.11,0.29-0.27,0.56-0.48,0.8
		c-0.17,0.2-0.43,0.28-0.78,0.25c-0.24-0.02-0.47-0.06-0.7-0.11c-0.24-0.06-0.47-0.12-0.7-0.18c-1.28-0.37-2.61-0.73-3.95-1.05
		c-1.31-0.31-2.63-0.66-3.92-1.04l-2.72-0.78c-0.33-0.09-0.56-0.17-0.71-0.24c-0.17-0.09-0.21-0.14-0.22-0.21
		c0.04-0.09,0.07-0.2,0.1-0.31c0.03-0.12,0.07-0.28,0.11-0.46c0.04-0.18,0.09-0.38,0.15-0.59c0.08-0.3,0.17-0.6,0.28-0.93
		c0.11-0.32,0.23-0.62,0.36-0.9c0.12-0.26,0.26-0.47,0.41-0.64c0.13-0.14,0.26-0.22,0.4-0.24c0.21-0.02,0.42,0,0.64,0.07
		c0.25,0.08,0.47,0.16,0.68,0.24c0.24,0.09,0.44,0.14,0.61,0.15c0.13,0,0.44-0.02,0.55-0.44c0.06-0.23,0.03-0.58-0.47-0.89
		c-0.31-0.19-0.69-0.38-1.14-0.55c-0.43-0.17-0.88-0.34-1.35-0.51c-0.43-0.16-0.78-0.32-1.01-0.48h0c-0.19-0.14-0.43-0.19-0.7-0.18
		c-0.18,0.01-0.51,0.11-0.64,0.59c-0.03,0.11-0.03,0.28,0.15,0.47c0.08,0.08,0.16,0.18,0.25,0.3c0.08,0.11,0.16,0.23,0.22,0.36
		c0.05,0.11,0.07,0.23,0.06,0.36c-0.03,0.22-0.07,0.45-0.12,0.67c-0.05,0.23-0.11,0.45-0.17,0.68c-0.19,0.72-0.37,1.41-0.53,2.08
		c-0.16,0.67-0.34,1.35-0.53,2.07c-0.24,0.89-0.5,1.8-0.77,2.74c-0.27,0.93-0.55,1.83-0.83,2.71c-0.06,0.18-0.13,0.3-0.22,0.37
		c-0.1,0.09-0.2,0.15-0.3,0.19c-0.11,0.05-0.21,0.09-0.3,0.12c-0.16,0.06-0.28,0.18-0.31,0.33c-0.07,0.25-0.05,0.48,0.05,0.66
		c0.09,0.17,0.22,0.31,0.38,0.42c0.15,0.1,0.33,0.19,0.53,0.26l0.51,0.19c0.74,0.28,1.3,0.53,1.68,0.75
		c0.42,0.25,0.75,0.4,1.03,0.48c0.09,0.03,0.18,0.04,0.25,0.04c0.13,0,0.23-0.03,0.32-0.1c0.13-0.09,0.22-0.24,0.27-0.44
		c0.05-0.19-0.08-0.37-0.3-0.6c-0.18-0.19-0.38-0.38-0.61-0.59c-0.23-0.2-0.44-0.4-0.65-0.58c-0.24-0.22-0.32-0.32-0.34-0.35
		c-0.18-0.34-0.28-0.67-0.29-0.97c-0.01-0.32,0.03-0.64,0.11-0.96l0.37-1.39c0.09-0.35,0.2-0.66,0.33-0.95
		c0.11-0.25,0.19-0.29,0.18-0.3c0.07,0.01,0.2,0.03,0.38,0.07c0.2,0.04,0.33,0.07,0.41,0.1l10.82,2.9c0.4,0.11,0.74,0.22,1,0.34
		c0.23,0.1,0.42,0.23,0.54,0.39c0.12,0.15,0.19,0.34,0.22,0.58c0.03,0.26,0.01,0.61-0.06,1.06c0,0.02-0.01,0.09-0.05,0.24
		c-0.05,0.18-0.06,0.36-0.04,0.54c0.02,0.15,0.1,0.4,0.47,0.5c0.42,0.12,0.57-0.17,0.61-0.26c0.05-0.13,0.09-0.26,0.13-0.39
		c0.14-0.54,0.27-1.09,0.38-1.63c0.1-0.52,0.23-1.06,0.37-1.6c0.16-0.58,0.33-1.17,0.53-1.75c0.2-0.59,0.38-1.19,0.54-1.78
		c0.06-0.21,0.09-0.37,0.1-0.49C220.22,140.04,220.15,139.81,219.68,139.69"/>
	<path class="st0" d="M223.12,120.53c-0.06-0.71-0.2-1.42-0.41-2.1c-0.26-0.8-0.67-1.43-1.22-1.9c-0.53-0.45-1.15-0.8-1.83-1.05
		c-0.68-0.25-1.4-0.42-2.15-0.5c-0.73-0.08-1.44-0.15-2.13-0.19c-0.42-0.03-0.83-0.05-1.25-0.07c-0.42-0.02-0.83-0.04-1.24-0.06
		c-0.46-0.03-1-0.06-1.62-0.09c-0.61-0.03-1.2-0.07-1.77-0.11c-0.56-0.04-1.05-0.1-1.46-0.17c-0.43-0.07-0.53-0.15-0.54-0.15
		c0-0.01-0.04-0.09-0.06-0.36c-0.02-0.23-0.05-0.47-0.09-0.73c-0.04-0.27-0.11-0.51-0.2-0.72c-0.12-0.27-0.32-0.43-0.59-0.45
		c-0.15,0-0.43,0.04-0.61,0.45l-0.02,0.08c-0.03,0.42-0.04,0.84-0.04,1.26c0,0.41-0.02,0.82-0.04,1.24
		c-0.03,0.39-0.06,0.79-0.12,1.19c-0.06,0.41-0.1,0.82-0.12,1.23c-0.01,0.14,0,0.29,0.03,0.42c0.02,0.1,0.12,0.35,0.49,0.37
		c0.39,0.02,0.58-0.15,0.68-0.3c0.11-0.16,0.19-0.36,0.25-0.6c0.05-0.21,0.1-0.42,0.15-0.64c0.03-0.16,0.1-0.3,0.19-0.39
		c0.05-0.05,0.19-0.14,0.55-0.17c0.32-0.02,0.69-0.02,1.09,0c0.41,0.03,0.84,0.06,1.28,0.1c0.45,0.04,0.85,0.07,1.21,0.1l4.94,0.31
		c0.44,0.03,0.88,0.1,1.29,0.21c0.75,0.18,1.39,0.41,1.88,0.68c0.48,0.26,0.88,0.59,1.17,0.97c0.29,0.38,0.49,0.84,0.59,1.38
		c0.11,0.55,0.14,1.21,0.09,1.97c-0.04,0.64-0.14,1.22-0.31,1.73c-0.16,0.49-0.42,0.91-0.76,1.25c-0.35,0.34-0.83,0.61-1.42,0.8
		c-0.61,0.19-1.38,0.29-2.31,0.3c-0.46,0-0.95-0.01-1.43-0.03c-0.48-0.02-0.95-0.05-1.43-0.08l-4.25-0.26
		c-0.23-0.02-0.47-0.03-0.73-0.06c-0.25-0.02-0.5-0.06-0.74-0.09c-0.24-0.04-0.46-0.08-0.65-0.12c-0.22-0.05-0.34-0.09-0.39-0.12
		c-0.18-0.09-0.28-0.22-0.32-0.41c-0.06-0.25-0.1-0.51-0.13-0.76c-0.03-0.27-0.07-0.52-0.12-0.74c-0.07-0.32-0.29-0.51-0.62-0.53
		c-0.28-0.02-0.5,0.15-0.57,0.45c-0.05,0.19-0.07,0.36-0.08,0.5c-0.03,0.54-0.04,1.08-0.03,1.61c0.01,0.5,0.01,1.03-0.03,1.56
		c-0.03,0.49-0.08,0.97-0.16,1.44c-0.08,0.49-0.13,0.99-0.16,1.49c-0.03,0.44,0.21,0.72,0.64,0.75c0.01,0,0.03,0,0.04,0
		c0.17,0,0.32-0.07,0.43-0.2c0.09-0.11,0.16-0.24,0.19-0.39c0.03-0.13,0.06-0.25,0.07-0.38c0.02-0.12,0.03-0.22,0.03-0.3l0.02-0.26
		c0.01-0.24,0.08-0.41,0.21-0.52c0.15-0.12,0.32-0.21,0.53-0.26c0.23-0.05,0.46-0.07,0.72-0.06c0.28,0.01,0.52,0.02,0.73,0.03
		c1.29,0.08,2.59,0.18,3.87,0.28c1.28,0.11,2.59,0.21,3.88,0.29l0.85,0.05c0.14,0.01,0.29,0.01,0.43,0.01c0.16,0,0.29,0,0.43-0.01
		c0.93-0.04,1.73-0.23,2.36-0.56c0.64-0.33,1.17-0.79,1.58-1.35c0.41-0.56,0.71-1.2,0.91-1.93c0.19-0.71,0.32-1.48,0.37-2.28
		C223.19,121.93,223.18,121.24,223.12,120.53"/>
</g>
</svg>
