<svg xmlns="http://www.w3.org/2000/svg" xmlns:xlink="http://www.w3.org/1999/xlink" xmlns:inkscape="http://www.inkscape.org/namespaces/inkscape" version="1.1" width="841.8898" height="595.2756" viewBox="0 0 841.8898 595.2756">
<defs>
<clipPath id="clip_1">
<path transform="matrix(0,1,1,0,0,0)" d="M80 79.999V761.89H515.277V79.999ZM80 79.999"/>
</clipPath>
</defs>
<g>
<g clip-path="url(#clip_1)">
<path transform="matrix(0,1,1,0,0,0)" d="M0 0H595.2756V841.8898H0Z" fill="#ffffff"/>
<text fill="#a52a2a" xml:space="preserve" transform="matrix(1 0 0 1 0 0)" font-size="14.394531" font-family="JMYXZU+DejaVuSansMono"><tspan y="154.03452" x="82.12414 90.78964 99.455158 108.12067 116.78618 125.437297 134.1028 142.76831 151.43383 160.09934 168.76485 177.43036 186.09587 194.747 203.4125 212.07802 220.74353">    |  A  |  B  |</tspan><tspan y="172.03452" x="82.12414 90.78964 99.455158 108.12067 116.78618 125.437297 134.1028 142.76831 151.43383 160.09934 168.76485 177.43036 186.09587 194.747 203.4125 212.07802 220.74353">----+-----+-----+</tspan><tspan y="190.03452" x="82.12414 90.78964 99.455158 108.12067 116.78618 125.437297 134.1028 142.76831 151.43383 160.09934 168.76485 177.43036 186.09587 194.747 203.4125 212.07802 220.74353">and | 1   | 4   |</tspan><tspan y="208.03452" x="82.12414 90.78964 99.455158 108.12067 116.78618 125.437297 134.1028 142.76831 151.43383 160.09934 168.76485 177.43036 186.09587 194.747 203.4125 212.07802 220.74353">is  | 2.5 | 0.5 |</tspan><tspan y="226.03452" x="82.12414 90.78964 99.455158 108.12067 116.78618 125.437297 134.1028 142.76831 151.43383 160.09934 168.76485 177.43036 186.09587 194.747 203.4125 212.07802 220.74353">of  | 1.5 | 3.2 |</tspan><tspan y="244.03452" x="82.12414 90.78964 99.455158 108.12067 116.78618 125.437297 134.1028 142.76831 151.43383 160.09934 168.76485 177.43036 186.09587 194.747 203.4125 212.07802 220.74353">not | 0.7 | 0.4 |</tspan><tspan y="262.03453" x="82.12414 90.78964 99.455158 108.12067 116.78618 125.437297 134.1028 142.76831 151.43383 160.09934 168.76485 177.43036 186.09587 194.747 203.4125 212.07802 220.74353">for | 0.2 | 0.2 |</tspan><tspan y="280.03453" x="82.12414 90.78964 99.455158 108.12067 116.78618 125.437297 134.1028 142.76831 151.43383 160.09934 168.76485 177.43036 186.09587 194.747 203.4125 212.07802 220.74353">... | ... | ... |</tspan></text>
<path transform="matrix(1,0,0,1,841.8898,0)" d="M-703.07 111.516C-703.07 127.172-715.762 139.863-731.418 139.863-747.074 139.863-759.766 127.172-759.766 111.516-759.766 95.859-747.074 83.168-731.418 83.168-715.762 83.168-703.07 95.859-703.07 111.516" fill="#ffffff" fill-rule="evenodd"/>
<path transform="matrix(1,0,0,1,841.8898,0)" stroke-width="4.251969" stroke-linecap="butt" stroke-dasharray="2.834646,2.834646" stroke-miterlimit="10" stroke-linejoin="miter" fill="none" stroke="#ffffff" d="M-703.07 111.516C-703.07 127.172-715.762 139.863-731.418 139.863-747.074 139.863-759.766 127.172-759.766 111.516-759.766 95.859-747.074 83.168-731.418 83.168-715.762 83.168-703.07 95.859-703.07 111.516"/>
<path transform="matrix(1,0,0,1,841.8898,0)" stroke-width="4.251969" stroke-linecap="butt" stroke-dasharray="2.834646,2.834646" stroke-miterlimit="10" stroke-linejoin="miter" fill="none" stroke="#ffffff" d="M-703.07 111.516C-703.07 127.172-715.762 139.863-731.418 139.863-747.074 139.863-759.766 127.172-759.766 111.516-759.766 95.859-747.074 83.168-731.418 83.168-715.762 83.168-703.07 95.859-703.07 111.516"/>
<path transform="matrix(1,0,0,1,841.8898,0)" d="M-703.07 465.848C-703.07 481.5-715.762 494.191-731.418 494.191-747.074 494.191-759.766 481.5-759.766 465.848-759.766 450.191-747.074 437.5-731.418 437.5-715.762 437.5-703.07 450.191-703.07 465.848" fill="#ffffff" fill-rule="evenodd"/>
<path transform="matrix(1,0,0,1,841.8898,0)" stroke-width="4.251969" stroke-linecap="butt" stroke-dasharray="2.834646,2.834646" stroke-miterlimit="10" stroke-linejoin="miter" fill="none" stroke="#ffffff" d="M-703.07 465.848C-703.07 481.5-715.762 494.191-731.418 494.191-747.074 494.191-759.766 481.5-759.766 465.848-759.766 450.191-747.074 437.5-731.418 437.5-715.762 437.5-703.07 450.191-703.07 465.848"/>
<path transform="matrix(1,0,0,1,841.8898,0)" stroke-width="4.251969" stroke-linecap="butt" stroke-dasharray="2.834646,2.834646" stroke-miterlimit="10" stroke-linejoin="miter" fill="none" stroke="#ffffff" d="M-703.07 465.848C-703.07 481.5-715.762 494.191-731.418 494.191-747.074 494.191-759.766 481.5-759.766 465.848-759.766 450.191-747.074 437.5-731.418 437.5-715.762 437.5-703.07 450.191-703.07 465.848"/>
<path transform="matrix(1,0,0,1,841.8898,0)" stroke-width="2.834646" stroke-linecap="butt" stroke-miterlimit="10" stroke-linejoin="miter" fill="none" stroke="#000000" d="M-518.82 366.633H-128.309"/>
<path transform="matrix(1,0,0,1,841.8898,0)" stroke-width="2.834646" stroke-linecap="butt" stroke-miterlimit="10" stroke-linejoin="miter" fill="none" stroke="#000000" d="M-139.312 373.719-125.137 366.633-139.312 359.547"/>
<path transform="matrix(1,0,0,1,841.8898,0)" stroke-width="2.834646" stroke-linecap="butt" stroke-miterlimit="10" stroke-linejoin="miter" fill="none" stroke="#000000" d="M-490.473 394.98V89.508"/>
<path transform="matrix(1,0,0,1,841.8898,0)" stroke-width="2.834646" stroke-linecap="butt" stroke-miterlimit="10" stroke-linejoin="miter" fill="none" stroke="#000000" d="M-483.387 100.512-490.473 86.336-497.559 100.512"/>
<path transform="matrix(1,0,0,1,841.8898,0)" stroke-width="1" stroke-linecap="butt" stroke-dasharray="2.834646,2.834646" stroke-miterlimit="10" stroke-linejoin="miter" fill="none" stroke="#000000" d="M-490.473 224.902H-419.605"/>
<path transform="matrix(1,0,0,1,841.8898,0)" stroke-width="1.417323" stroke-linecap="butt" stroke-miterlimit="10" stroke-linejoin="miter" fill="none" stroke="#000000" d="M-419.605 360.965V372.301"/>
<path transform="matrix(1,0,0,1,841.8898,0)" stroke-width="1.417323" stroke-linecap="butt" stroke-miterlimit="10" stroke-linejoin="miter" fill="none" stroke="#000000" d="M-348.742 360.965V372.301"/>
<path transform="matrix(1,0,0,1,841.8898,0)" stroke-width="1.417323" stroke-linecap="butt" stroke-miterlimit="10" stroke-linejoin="miter" fill="none" stroke="#000000" d="M-277.875 360.965V372.301"/>
<path transform="matrix(1,0,0,1,841.8898,0)" stroke-width="1.417323" stroke-linecap="butt" stroke-miterlimit="10" stroke-linejoin="miter" fill="none" stroke="#000000" d="M-207.008 360.965V372.301"/>
<path transform="matrix(1,0,0,1,841.8898,0)" stroke-width="1.417323" stroke-linecap="butt" stroke-miterlimit="10" stroke-linejoin="miter" fill="none" stroke="#000000" d="M-496.141 309.941H-484.805"/>
<path transform="matrix(1,0,0,1,841.8898,0)" stroke-width="1.417323" stroke-linecap="butt" stroke-miterlimit="10" stroke-linejoin="miter" fill="none" stroke="#000000" d="M-496.141 253.246H-484.805"/>
<path transform="matrix(1,0,0,1,841.8898,0)" stroke-width="1.417323" stroke-linecap="butt" stroke-miterlimit="10" stroke-linejoin="miter" fill="none" stroke="#000000" d="M-496.141 196.555H-484.805"/>
<path transform="matrix(1,0,0,1,841.8898,0)" stroke-width="1.417323" stroke-linecap="butt" stroke-miterlimit="10" stroke-linejoin="miter" fill="none" stroke="#000000" d="M-496.141 139.863H-484.805"/>
<path transform="matrix(1,0,0,1,841.8898,0)" stroke-width="4.251969" stroke-linecap="butt" stroke-miterlimit="10" stroke-linejoin="miter" fill="none" stroke="#1e90ff" d="M-490.473 224.902V338.285"/>
<text xml:space="preserve" transform="matrix(1 0 0 1 0 0)" font-size="11.183594" font-family="LKOCFS+DejaVuSans"><tspan y="383.64253" x="418.74134">1</tspan><tspan y="312.77534" x="336.5343">1</tspan><tspan y="383.64253" x="489.6046">2</tspan><tspan y="256.08393" x="336.5343">2</tspan><tspan y="383.64253" x="560.4718">3</tspan><tspan y="199.38863" x="336.5343">3</tspan><tspan y="383.64253" x="631.339">4</tspan></text>
<path transform="matrix(1,0,0,1,841.8898,0)" stroke-width="4.251969" stroke-linecap="butt" stroke-miterlimit="10" stroke-linejoin="miter" fill="none" stroke="#a52a2a" d="M-419.605 366.633H-207.008"/>
<path transform="matrix(1,0,0,1,841.8898,0)" stroke-width="4.251969" stroke-linecap="butt" stroke-dasharray="2.834646,2.834646" stroke-miterlimit="10" stroke-linejoin="miter" fill="none" stroke="#a52a2a" d="M-419.605 366.633V234.41"/>
<path transform="matrix(1,0,0,1,841.8898,0)" stroke-width="4.251969" stroke-linecap="butt" stroke-miterlimit="10" stroke-linejoin="miter" fill="none" stroke="#a52a2a" d="M-412.52 243.828-419.605 229.656-426.695 243.828"/>
<text fill="#a52a2a" xml:space="preserve" transform="matrix(1 0 0 1 0 0)" font-size="18.131836" font-family="LKOCFS+DejaVuSans"><tspan y="210.72914" x="416.61244">A</tspan></text>
</g>
</g>
</svg>
