<svg xmlns="http://www.w3.org/2000/svg" xmlns:xlink="http://www.w3.org/1999/xlink" xmlns:inkscape="http://www.inkscape.org/namespaces/inkscape" version="1.1" width="841.8898" height="595.2756" viewBox="0 0 841.8898 595.2756">
<defs>
<clipPath id="clip_1">
<path transform="matrix(0,1,1,0,0,0)" d="M80 79.999V761.89H515.277V79.999ZM80 79.999"/>
</clipPath>
</defs>
<g>
<g clip-path="url(#clip_1)">
<path transform="matrix(0,1,1,0,0,0)" d="M0 0H595.2756V841.8898H0Z" fill="#ffffff"/>
<text fill="#a52a2a" xml:space="preserve" transform="matrix(1 0 0 1 0 0)" font-size="14.394531" font-family="JMYXZU+DejaVuSansMono"><tspan y="152.99155" x="82.12414 90.78964 99.455158 108.12067 116.78618 125.437297 134.1028 142.76831 151.43383 160.09934 168.76485 177.43036 186.09587 194.747 203.4125 212.07802 220.74353">    |  A  |  B  |</tspan><tspan y="170.99155" x="82.12414 90.78964 99.455158 108.12067 116.78618 125.437297 134.1028 142.76831 151.43383 160.09934 168.76485 177.43036 186.09587 194.747 203.4125 212.07802 220.74353">----+-----+-----+</tspan><tspan y="188.99155" x="82.12414 90.78964 99.455158 108.12067 116.78618 125.437297 134.1028 142.76831 151.43383 160.09934 168.76485 177.43036 186.09587 194.747 203.4125 212.07802 220.74353">and | 1   | 4   |</tspan><tspan y="206.99155" x="82.12414 90.78964 99.455158 108.12067 116.78618 125.437297 134.1028 142.76831 151.43383 160.09934 168.76485 177.43036 186.09587 194.747 203.4125 212.07802 220.74353">is  | 2.5 | 0.5 |</tspan><tspan y="224.99155" x="82.12414 90.78964 99.455158 108.12067 116.78618 125.437297 134.1028 142.76831 151.43383 160.09934 168.76485 177.43036 186.09587 194.747 203.4125 212.07802 220.74353">of  | 1.5 | 3.2 |</tspan><tspan y="242.99155" x="82.12414 90.78964 99.455158 108.12067 116.78618 125.437297 134.1028 142.76831 151.43383 160.09934 168.76485 177.43036 186.09587 194.747 203.4125 212.07802 220.74353">not | 0.7 | 0.4 |</tspan><tspan y="260.99156" x="82.12414 90.78964 99.455158 108.12067 116.78618 125.437297 134.1028 142.76831 151.43383 160.09934 168.76485 177.43036 186.09587 194.747 203.4125 212.07802 220.74353">for | 0.2 | 0.2 |</tspan><tspan y="278.99156" x="82.12414 90.78964 99.455158 108.12067 116.78618 125.437297 134.1028 142.76831 151.43383 160.09934 168.76485 177.43036 186.09587 194.747 203.4125 212.07802 220.74353">... | ... | ... |</tspan></text>
<path transform="matrix(1,0,0,1,841.8898,0)" d="M-703.07 110.473C-703.07 126.129-715.762 138.816-731.418 138.816-747.074 138.816-759.766 126.129-759.766 110.473-759.766 94.816-747.074 82.125-731.418 82.125-715.762 82.125-703.07 94.816-703.07 110.473" fill="#ffffff" fill-rule="evenodd"/>
<path transform="matrix(1,0,0,1,841.8898,0)" stroke-width="4.251969" stroke-linecap="butt" stroke-dasharray="2.834646,2.834646" stroke-miterlimit="10" stroke-linejoin="miter" fill="none" stroke="#ffffff" d="M-703.07 110.473C-703.07 126.129-715.762 138.816-731.418 138.816-747.074 138.816-759.766 126.129-759.766 110.473-759.766 94.816-747.074 82.125-731.418 82.125-715.762 82.125-703.07 94.816-703.07 110.473"/>
<path transform="matrix(1,0,0,1,841.8898,0)" stroke-width="4.251969" stroke-linecap="butt" stroke-dasharray="2.834646,2.834646" stroke-miterlimit="10" stroke-linejoin="miter" fill="none" stroke="#ffffff" d="M-703.07 110.473C-703.07 126.129-715.762 138.816-731.418 138.816-747.074 138.816-759.766 126.129-759.766 110.473-759.766 94.816-747.074 82.125-731.418 82.125-715.762 82.125-703.07 94.816-703.07 110.473"/>
<path transform="matrix(1,0,0,1,841.8898,0)" d="M-703.07 464.801C-703.07 480.457-715.762 493.148-731.418 493.148-747.074 493.148-759.766 480.457-759.766 464.801-759.766 449.148-747.074 436.457-731.418 436.457-715.762 436.457-703.07 449.148-703.07 464.801" fill="#ffffff" fill-rule="evenodd"/>
<path transform="matrix(1,0,0,1,841.8898,0)" stroke-width="4.251969" stroke-linecap="butt" stroke-dasharray="2.834646,2.834646" stroke-miterlimit="10" stroke-linejoin="miter" fill="none" stroke="#ffffff" d="M-703.07 464.801C-703.07 480.457-715.762 493.148-731.418 493.148-747.074 493.148-759.766 480.457-759.766 464.801-759.766 449.148-747.074 436.457-731.418 436.457-715.762 436.457-703.07 449.148-703.07 464.801"/>
<path transform="matrix(1,0,0,1,841.8898,0)" stroke-width="4.251969" stroke-linecap="butt" stroke-dasharray="2.834646,2.834646" stroke-miterlimit="10" stroke-linejoin="miter" fill="none" stroke="#ffffff" d="M-703.07 464.801C-703.07 480.457-715.762 493.148-731.418 493.148-747.074 493.148-759.766 480.457-759.766 464.801-759.766 449.148-747.074 436.457-731.418 436.457-715.762 436.457-703.07 449.148-703.07 464.801"/>
<path transform="matrix(1,0,0,1,841.8898,0)" stroke-width="2.834646" stroke-linecap="butt" stroke-miterlimit="10" stroke-linejoin="miter" fill="none" stroke="#000000" d="M-518.82 365.59H-128.309"/>
<path transform="matrix(1,0,0,1,841.8898,0)" stroke-width="2.834646" stroke-linecap="butt" stroke-miterlimit="10" stroke-linejoin="miter" fill="none" stroke="#000000" d="M-139.312 372.676-125.137 365.59-139.312 358.504"/>
<path transform="matrix(1,0,0,1,841.8898,0)" stroke-width="1.417323" stroke-linecap="butt" stroke-miterlimit="10" stroke-linejoin="miter" fill="none" stroke="#000000" d="M-419.605 359.922V371.258"/>
<path transform="matrix(1,0,0,1,841.8898,0)" stroke-width="1.417323" stroke-linecap="butt" stroke-miterlimit="10" stroke-linejoin="miter" fill="none" stroke="#000000" d="M-348.742 359.922V371.258"/>
<path transform="matrix(1,0,0,1,841.8898,0)" stroke-width="1.417323" stroke-linecap="butt" stroke-miterlimit="10" stroke-linejoin="miter" fill="none" stroke="#000000" d="M-277.875 359.922V371.258"/>
<path transform="matrix(1,0,0,1,841.8898,0)" stroke-width="1.417323" stroke-linecap="butt" stroke-miterlimit="10" stroke-linejoin="miter" fill="none" stroke="#000000" d="M-207.008 359.922V371.258"/>
<text xml:space="preserve" transform="matrix(1 0 0 1 0 0)" font-size="11.183594" font-family="XFCRFU+DejaVuSans"><tspan y="382.59953" x="418.74134 489.6006 560.4718 631.33108">1234</tspan></text>
<path transform="matrix(1,0,0,1,841.8898,0)" stroke-width="4.251969" stroke-linecap="butt" stroke-miterlimit="10" stroke-linejoin="miter" fill="none" stroke="#a52a2a" d="M-419.605 365.59H-207.008"/>
<path transform="matrix(1,0,0,1,841.8898,0)" stroke-width="1.417323" stroke-linecap="butt" stroke-miterlimit="10" stroke-linejoin="miter" fill="none" stroke="#000000" d="M-490.473 354.25V365.59"/>
<path transform="matrix(1,0,0,1,841.8898,0)" stroke-width="1.417323" stroke-linecap="butt" stroke-miterlimit="10" stroke-linejoin="miter" fill="none" stroke="#000000" d="M-490.473 365.59V376.93"/>
<text fill="#a52a2a" xml:space="preserve" transform="matrix(1 0 0 1 0 0)" font-size="18.131836" font-family="XFCRFU+DejaVuSans"><tspan y="345.7487" x="416.61244 629.2101">AB</tspan></text>
</g>
</g>
</svg>
