<?xml version="1.0" encoding="UTF-8"?>
<svg id="Layer_1" data-name="Layer 1" xmlns="http://www.w3.org/2000/svg" viewBox="140 0 140 150">
  <defs>
    <style>
      .cls-1 {
        stroke-miterlimit: 10;
        stroke-width: .05px;
      }

      .cls-1, .cls-2 {
        fill: #517dba;
        stroke: #517dba;
      }

      .cls-2, .cls-3 {
        stroke-miterlimit: 7.35;
        stroke-width: 1.5px;
      }

      .cls-3 {
        fill: #f1592c;
        stroke: #f1592c;
      }
    </style>
  </defs>
  <g>
    <path class="cls-2" d="M266.7,88.86h-55.77c-.4,0-.75-.27-.85-.67-.1-.39.09-.8.44-.98l51.69-26.87.8,1.55-48.53,25.22h52.2v1.74Z"/>
    <path class="cls-3" d="M211.89,87.7l-15.35-53.85-1.68.48,14.38,50.47h0l-34.83-39.67-1.31,1.15,34.39,39.18h0l-48.69-21.56-.71,1.59,48.83,21.62h-54.1v1.74h58.23c.41,0,.81-.28.85-.69.03-.24,0-.4-.02-.47Z"/>
  </g>
  <path class="cls-1" d="M218.26,113.4c0,.96.79,1.67,1.75,1.67s1.75-.71,1.75-1.67-.79-1.66-1.75-1.66-1.75.71-1.75,1.66M213.18,131.78c0,.39.34.71.76.71h12.82c.42,0,.76-.31.76-.71s-.34-.71-.76-.71h-5v-11.89c0-.82-.68-.82-.96-.82h-6.86c-.42,0-.76.31-.76.71s.34.7.76.7l5,.4v10.9h-5c-.42,0-.76.31-.76.71M197.45,123.56c0-1.86.56-4.07,2.71-4.07s2.68,2.2,2.68,4.07-.56,4.07-2.68,4.07-2.71-2.2-2.71-4.07M194.86,135.17c0-.73.93-1.98,3.14-2h2.79c2.77,0,4.12.31,3.9,1.84-.17,1.16-2.03,2.29-5.7,2.29-3.19,0-4.12-.71-4.12-2.12M200.16,129.04c3.02,0,5.53-2.43,5.53-5.48,0-.71-.14-1.41-.42-2.06h1.5c.71,0,1.67-.34,1.67-1.75,0-.76-.59-1.67-1.81-1.67-.57,0-1.78.37-1.98,2.32-.99-1.38-2.63-2.32-4.49-2.32-3.05,0-5.53,2.48-5.53,5.48,0,1.21.4,2.34,1.07,3.25-.45.39-.93.9-1.41,1.47-.45.51-.82,1.21-.82,1.81,0,1.16.48,2.06,1.53,2.57-1.24.59-1.86,1.69-1.86,2.51,0,2.12,1.78,3.53,5.84,3.53,5.19,0,7.76-1.78,7.76-4.74,0-2.51-2.26-3.33-5.73-3.33h-3.42c-1.58,0-2.37,0-2.37-.85,0-.31.23-.65.68-1.13.23-.25.51-.51.82-.79.96.73,2.15,1.19,3.44,1.19M178.73,113.4c0,.96.79,1.67,1.75,1.67s1.75-.71,1.75-1.67-.79-1.66-1.75-1.66-1.75.71-1.75,1.66M173.65,131.78c0,.39.34.71.76.71h12.82c.42,0,.76-.31.76-.71s-.34-.71-.76-.71h-5v-11.89c0-.82-.68-.82-.96-.82h-6.86c-.42,0-.76.31-.76.71s.34.7.76.7l5,.4v10.9h-5c-.42,0-.76.31-.76.71M152.25,131.78c0-.42.31-.71.82-.71h2.54v-17.79h-2.54c-.51,0-.82-.28-.82-.71s.31-.71.82-.71h8.98c3.11,0,7.71,2.88,7.71,10.39,0,8.24-4.69,10.22-7.68,10.22h-9.01c-.51,0-.82-.28-.82-.71M158.43,131.07h3.64c2.88,0,4.86-3.81,4.86-8.81s-1.86-8.98-4.89-8.98h-3.59l-.03,17.79ZM255.93,116.28c0-1.95,1.04-2.99,3.3-2.99,2.6,0,5.25,2.4,6.27,4.77.17.39.25.82.73.82.45,0,.68-.28.68-.79v-5.56c0-.51-.28-.82-.71-.82-.37,0-.7.28-.73.82l-.17,2.2c-1.55-1.92-3.81-2.85-6.07-2.85-3.36,0-5.79,2.2-5.79,5.22,0,3.5,2.49,4.77,5.79,5.96,2.74.99,5.99,2.15,5.99,4.66,0,2.65-2.46,3.64-4.38,3.64-2.57,0-5.48-2.09-5.9-4.97l-.2-1.3c-.06-.45-.23-.82-.71-.82s-.71.37-.71.82v6.61c0,.51.31.79.71.79s.71-.28.71-.79v-2c.88,1.52,3.16,3.08,6.15,3.08s6.38-1.24,6.38-5.73-3.19-5.17-6.66-6.58c-2.29-.93-4.69-1.78-4.69-4.18M237.12,113.29h1.61v17.79h-3.33c-.51,0-.79.31-.79.71s.28.71.79.71h9.49c.51,0,.79-.31.79-.71s-.28-.71-.79-.71h-3.33v-17.79h1.61c2.74,0,2.74,1.67,2.99,4.52l.11,1.3c.03.48.2.85.71.85s.76-.37.76-.85l-.17-6.35c0-.48-.25-.88-.76-.88h-13.33c-.51,0-.76.39-.76.88l-.17,6.35c0,.48.25.85.76.85s.68-.37.71-.85l.11-1.3c.25-2.85.25-4.52,2.99-4.52"/>
</svg>